<ttFont>
<head>
    <!-- Most of this table will be recalculated by the compiler -->
    <tableVersion value="1.0"/>
    <fontRevision value="4.00099"/>
    <checkSumAdjustment value="0x75d56e76"/>
    <magicNumber value="0x5f0f3cf5"/>
    <flags value="00000000 00000011"/>
    <unitsPerEm value="1000"/>
    <created value="Mon Mar 26 23:10:35 2018"/>
    <modified value="Mon Mar 26 23:10:35 2018"/>
    <xMin value="-517"/>
    <yMin value="-564"/>
    <xMax value="2652"/>
    <yMax value="1053"/>
    <macStyle value="00000000 00000010"/>
    <lowestRecPPEM value="3"/>
    <fontDirectionHint value="2"/>
    <indexToLocFormat value="0"/>
    <glyphDataFormat value="0"/>
  </head>
          <CharString index="0">
            97 callsubr
            -123 -91 -85 177 callgsubr
            -137 -25 65 -108 154 141 callgsubr
            return
          </CharString>
          <CharString index="1">
            hhcurveto
            10 8 1 1 12 hvcurveto
            -104 callgsubr
            return
          </CharString>
          <CharString index="2">
            hlineto
            -10 -54 rlineto
            395 -103 callsubr
            return
          </CharString>
          <CharString index="3">
            -105 callsubr
            160 rlineto
            return
          </CharString>
          <CharString index="4">
            -77 callsubr
            -98 hlineto
            -36 -202 -99 callgsubr
            return
          </CharString>
          <CharString index="5">
            hlineto
            -10 -54 rlineto
            return
          </CharString>
          <CharString index="6">
            -102 callsubr
            326 hlineto
            -51 -284 rlineto
            -53 -9 -28 -55 -73 hhcurveto
            -68 -13 54 51 9 hvcurveto
            6 31 rlineto
            -63 hlineto
            -6 -30 rlineto
            -91 -16 45 -71 102 hhcurveto
            109 54 76 90 16 hvcurveto
            49 282 rlineto
            return
          </CharString>
          <CharString index="7">
            -137 -25 65 -108 154 -106 callsubr
            return
          </CharString>
          <CharString index="8">
            -13 callsubr
            136 118 35 callgsubr
            -137 -96 -101 -148 -4 hvcurveto
            63 hlineto
            109 65 84 103 79 49 -58 -90 -15 vhcurveto
            -109 -20 -99 -53 -108 hhcurveto
            -148 hlineto
            -30 -171 2 callgsubr
            return
          </CharString>
          <CharString index="9">
            -102 callsubr
            506 hlineto
            151 callgsubr
            63 -17 -52 50 -98 hhcurveto
            -124 -106 -4 callgsubr
            return
          </CharString>
          <CharString index="10">
            -131 -109 -171 -30 hvcurveto
            477 -1 rmoveto
            -136 -24 -106 -84 -112 hhcurveto
            -114 -74 83 138 25 hvcurveto
            139 24 103 80 114 hhcurveto
            112 77 -84 -136 -25 hvcurveto
            return
          </CharString>
          <CharString index="11">
            191 callgsubr
            -67 -58 -79 hhcurveto
            -83 -47 54 78 14 hvcurveto
            return
          </CharString>
          <CharString index="12">
            -91 128 -91 callgsubr
            return
          </CharString>
          <CharString index="13">
            hhcurveto
            -150 -97 callsubr
            return
          </CharString>
          <CharString index="14">
            183 755 419 rmoveto
            171 -113 117 -175 -235 -176 -190 -237 -170 114 -117 175 235 175 189 237 vhcurveto
            -626 -134 rmoveto
            191 134 167 193 137 90 -86 -142 -193 -136 -166 -192 -137 -89 87 142 vhcurveto
            return
          </CharString>
          <CharString index="15">
            rmoveto
            -104 -66 68 115 19 hvcurveto
            111 20 94 214 callgsubr
            return
          </CharString>
          <CharString index="16">
            363 callgsubr
            -56 -57 -77 hhcurveto
            -74 -35 57 82 14 hvcurveto
            30 167 rlineto
            -64 hlineto
            -29 -166 -35 callgsubr
            return
          </CharString>
          <CharString index="17">
            -91 callsubr
            112 rcurveline
            return
          </CharString>
          <CharString index="18">
            -26 81 -84 callsubr
            return
          </CharString>
          <CharString index="19">
            rmoveto
            43 hlineto
            31 9 18 14 23 41 10 -47 53 hhcurveto
            47 42 34 59 17 hvcurveto
            -43 hlineto
            -30 -9 -21 -15 -21 -44 -8 47 -52 hhcurveto
            -47 -39 -32 -61 -19 hvcurveto
            return
          </CharString>
          <CharString index="20">
            -74 callsubr
            -62 callsubr
            return
          </CharString>
          <CharString index="21">
            rmoveto
            302 hlineto
            -30 -167 rlineto
            29 -29 -43 16 -53 hhcurveto
            -89 -63 -50 -64 -36 hvcurveto
            -280 -289 -107 callgsubr
            765 101 -63 callgsubr
            -1792 17 callgsubr
            63 101 108 hhcurveto
            76 50 -45 -73 3 -6 callgsubr
            return
          </CharString>
          <CharString index="22">
            -149 -26 100 -104 154 -82 callsubr
          </CharString>
          <CharString index="23">
            -90 123 hhcurveto
            95 68 49 63 40 hvcurveto
            -39 -218 rlineto
            return
          </CharString>
          <CharString index="24">
            -102 callsubr
            300 41 callsubr
            -74 -29 -76 88 callsubr
            -146 -27 86 337 callgsubr
            return
          </CharString>
          <CharString index="25">
            -84 callgsubr
            91 hlineto
            32 181 rlineto
            endchar
          </CharString>
          <CharString index="26">
            hvcurveto
            3 1 4 1 4 vhcurveto
            128 -20 callsubr
            return
          </CharString>
          <CharString index="27">
            28 599 546 rmoveto
            -70 hlineto
            -55 -311 rlineto
            -123 -26 -81 -60 -98 hhcurveto
            -100 -55 62 121 21 hvcurveto
            55 311 rlineto
            -69 hlineto
            -56 -319 rlineto
            -160 -28 85 -76 124 hhcurveto
            80 78 36 69 46 hvcurveto
            return
          </CharString>
          <CharString index="28">
            rrcurveto
            -119 -21 67 -102 148 hhcurveto
            129 85 81 79 27 hvcurveto
            -62 hlineto
            -49 -22 -61 -57 -92 hhcurveto
            -108 -45 73 91 17 hvcurveto
            87 16 72 77 106 hhcurveto
            96 38 -59 -48 4 hvcurveto
            61 hlineto
            72 -55 87 -135 -21 -19 -2 -4 -19 vhcurveto
            -45 376 callgsubr
            49 rrcurveto
            66 11 62 23 61 hhcurveto
            186 hlineto
            endchar
          </CharString>
          <CharString index="29">
            96 16 -59 68 -94 hhcurveto
            -89 -72 -51 -87 -15 hvcurveto
            -2 -8 -1 -11 -9 vvcurveto
            48 hlineto
            7 1 7 1 7 vhcurveto
            60 10 51 37 58 hhcurveto
            65 38 -48 -66 -12 hvcurveto
            -86 -16 -84 -59 -102 hhcurveto
            -140 -79 93 131 24 hvcurveto
            155 26 126 76 138 hhcurveto
            return
          </CharString>
          <CharString index="30">
            hlineto
            -18 -98 rlineto
            -108 -20 -74 -69 -116 hhcurveto
            return
          </CharString>
          <CharString index="31">
            hhcurveto
            78 68 35 52 37 hvcurveto
            -37 -206 rlineto
            63 hlineto
            55 319 rlineto
            -58 hlineto
            -105 -18 -94 -43 -70 hhcurveto
            -103 -57 70 105 18 hvcurveto
            121 21 16 callgsubr
            return
          </CharString>
          <CharString index="32">
            10 54 rlineto
            return
          </CharString>
          <CharString index="33">
            141 callgsubr
            93 32 266 callsubr
            -113 hhcurveto
            -10 -10 1 1 -9 hvcurveto
            -11 90 callsubr
            return
          </CharString>
          <CharString index="34">
            -71 callsubr
            -100 40 callgsubr
            -44 -17 -91 245 callgsubr
            return
          </CharString>
          <CharString index="35">
            rlineto
            64 -29 callsubr
            return
          </CharString>
          <CharString index="36">
            hhcurveto
            -87 -73 37 87 17 hvcurveto
            67 11 56 -75 callgsubr
            return
          </CharString>
          <CharString index="37">
            -56 callgsubr
            11 63 -20 49 -32 29 rrcurveto
            return
          </CharString>
          <CharString index="38">
            121 -63 callsubr
            return
          </CharString>
          <CharString index="39">
            258 callgsubr
            782 69 callgsubr
            return
          </CharString>
          <CharString index="40">
            -72 callgsubr
            endchar
          </CharString>
          <CharString index="41">
            -102 callsubr
            120 hlineto
            -43 return
          </CharString>
          <CharString index="42">
            -9 -53 rlineto
            38 hlineto
            52 35 -17 -24 20 hvcurveto
            -2 1 vlineto
            22 -27 4 -36 -6 -33 rrcurveto
            -84 -15 -66 -58 -91 hhcurveto
            -89 -54 60 86 15 hvcurveto
            -60 hlineto
            -120 -22 78 -81 127 hhcurveto
            121 94 76 291 callsubr
            6 36 -3 36 -14 30 181 -1 rcurveline
            384 callgsubr
            return
          </CharString>
          <CharString index="43">
            -70 callgsubr
            -172 -293 rmoveto
            -88 callgsubr
            return
          </CharString>
          <CharString index="44">
            686 rlineto
            return
          </CharString>
          <CharString index="45">
            153 -1 95 103 24 138 21 118 -45 88 -93 19 24 142 rcurveline
            261 -28 callgsubr
            return
          </CharString>
          <CharString index="46">
            -102 callsubr
            445 -57 callgsubr
            return
          </CharString>
          <CharString index="47">
            -74 -37 56 78 15 hvcurveto
            53 304 rlineto
            239 hlineto
            -53 -304 rlineto
            -78 -14 -54 -56 -75 hhcurveto
            return
          </CharString>
          <CharString index="48">
            138 79 70 94 17 hvcurveto
            123 22 -94 46 -103 hhcurveto
            -45 hlineto
            -62 -53 24 69 12 hvcurveto
            77 14 76 16 62 hhcurveto
            return
          </CharString>
          <CharString index="49">
            hvcurveto
            -41 -234 -72 callsubr
            return
          </CharString>
          <CharString index="50">
            rmoveto
            115 20 102 78 112 hhcurveto
            118 68 -84 -115 -20 hvcurveto
            -114 -20 -102 -79 -113 hhcurveto
            -115 -70 85 114 20 hvcurveto
            return
          </CharString>
          <CharString index="51">
            hlineto
            -167 -132 -74 -52 callsubr
            return
          </CharString>
          <CharString index="52">
            -62 hlineto
            -88 -13 -51 -68 -85 hhcurveto
            -91 return
          </CharString>
          <CharString index="53">
            rmoveto
            78 14 69 44 67 hhcurveto
            70 52 -47 -75 -14 hvcurveto
            -12 -66 -48 -39 -60 -33 -91 4 -60 50 13 84 rrcurveto
            179 -625 rmoveto
            48 267 rlineto
            -55 hlineto
            -72 -13 -57 -59 -82 hhcurveto
            -78 -36 53 67 12 hvcurveto
            18 101 99 35 98 46 rrcurveto
            return
          </CharString>
          <CharString index="54">
            12 -35 callsubr
            -91 return
          </CharString>
          <CharString index="55">
            -173 -30 hvcurveto
            -93 callgsubr
            return
          </CharString>
          <CharString index="56">
            141 -22 callsubr
            return
          </CharString>
          <CharString index="57">
            -67 callgsubr
            -110 -18 78 -83 150 hhcurveto
            138 79 70 94 17 hvcurveto
            231 callsubr
            return
          </CharString>
          <CharString index="58">
            rmoveto
            22 241 -371 -64 19 181 rrcurveto
            72 7 66 43 87 hhcurveto
            97 43 -60 -52 -4 hvcurveto
            73 hlineto
            93 5 -74 77 -136 hhcurveto
            -137 -93 -76 -108 -5 hvcurveto
            -17 -231 367 74 -22 -195 rrcurveto
            -75 -7 -62 -46 -92 hhcurveto
            -113 -36 71 59 4 hvcurveto
            -69 hlineto
            return
          </CharString>
          <CharString index="59">
            8 callsubr
            426 22 callsubr
            321 callsubr
            -12 callgsubr
            -110 -18 78 -83 150 hhcurveto
            -59 callsubr
            return
          </CharString>
          <CharString index="60">
            298 callsubr
            5 6 0 1 5 hvcurveto
            -200 -162 rlineto
            72 hlineto
            242 198 21 13 18 18 14 19 rlinecurve
            -37 -206 rlineto
            63 hlineto
            55 319 rlineto
            -58 hlineto
            -12 -68 -43 -41 -47 -22 -2 1 rcurveline
            -4 -3 rlineto
            -10 -25 -26 -5 -23 hhcurveto
            -103 -57 70 105 18 hvcurveto
            121 21 16 callgsubr
            endchar
          </CharString>
          <CharString index="61">
            215 callsubr
            -262 -219 rlineto
            73 hlineto
            306 262 18 14 16 16 13 19 rlinecurve
            -53 -303 64 callsubr
          </CharString>
          <CharString index="62">
            -63 callsubr
            -51 callsubr
            return
          </CharString>
          <CharString index="63">
            rmoveto
            25 24 21 25 4 hvcurveto
            25 5 -17 21 -25 hhcurveto
            -26 -24 -21 -25 -5 hvcurveto
            -25 -4 17 -21 26 hhcurveto
            endchar
          </CharString>
          <CharString index="64">
            rmoveto
            -46 hlineto
            89 -4 -61 62 -99 hhcurveto
            -96 -63 -51 -63 -36 hvcurveto
            42 238 rlineto
            591 hlineto
            -18 -98 rlineto
            -108 -20 -74 81 callgsubr
            957 299 callsubr
            return
          </CharString>
          <CharString index="65">
            hhcurveto
            -83 -47 54 78 14 hvcurveto
            return
          </CharString>
          <CharString index="66">
            0 27 hhcurveto
            139 121 56 141 24 hvcurveto
            103 18 -58 77 -108 hhcurveto
            -135 -83 -99 -130 -1 hvcurveto
            58 hlineto
            100 -1 56 74 96 hhcurveto
            76 34 -55 -68 -12 hvcurveto
            -124 -21 307 callgsubr
            -100 hlineto
            -183 -53 88 -134 195 hhcurveto
            return
          </CharString>
          <CharString index="67">
            686 -87 callgsubr
            return
          </CharString>
          <CharString index="68">
            -16 callgsubr
            199 191 callsubr
            return
          </CharString>
          <CharString index="69">
            237 callgsubr
            444 302 rmoveto
            -95 -66 -51 -63 -39 hvcurveto
            42 236 rlineto
            305 hlineto
            -31 -171 rlineto
            31 -27 -40 18 -49 hhcurveto
            289 -302 -63 callgsubr
            -1777 -53 callgsubr
            326 rlineto
            -1 vlineto
            89 15 68 97 114 hhcurveto
            71 44 -45 -73 7 -6 callgsubr
            endchar
          </CharString>
          <CharString index="70">
            -44 callgsubr
            endchar
          </CharString>
          <CharString index="71">
            8 callgsubr
            81 229 callsubr
            return
          </CharString>
          <CharString index="72">
            60 44 74 51 callsubr
            return
          </CharString>
          <CharString index="73">
            127 callsubr
            201 -280 144 callsubr
            123 3 91 49 25 142 55 callsubr
            -118 -19 -104 -79 -115 148 callsubr
            return
          </CharString>
          <CharString index="74">
            288 15 callsubr
            return
          </CharString>
          <CharString index="75">
            12 callgsubr
            90 60 269 callgsubr
            return
          </CharString>
          <CharString index="76">
            171 callsubr
            -411 54 -76 callgsubr
            297 140 rmoveto
            -83 -59 56 100 17 hvcurveto
            95 17 76 56 82 hhcurveto
            102 33 -75 -68 -8 hvcurveto
            -4 -21 rlineto
            -68 -16 -57 -75 -100 hhcurveto
            endchar
          </CharString>
          <CharString index="77">
            172 callgsubr
            -83 34 callsubr
            return
          </CharString>
          <CharString index="78">
            hlineto
            -60 callgsubr
            return
          </CharString>
          <CharString index="79">
            86 callgsubr
            -97 531 rmoveto
            130 46 -100 -92 -17 hvcurveto
            -7 -40 -20 -43 -32 -35 -243 -8 callsubr
            return
          </CharString>
          <CharString index="80">
            rmoveto
            -119 82 -149 -82 -10 -57 149 84 119 -84 rlineto
            return
          </CharString>
          <CharString index="81">
            -102 callsubr
            906 -77 callsubr
            -54 hlineto
            60 -15 -60 35 -104 hhcurveto
            -176 hlineto
            -120 -97 -67 355 callgsubr
            -115 -20 76 -76 111 hhcurveto
            109 261 callgsubr
            -33 29 rrcurveto
            68 hlineto
            95 35 -39 -49 -2 hvcurveto
            -28 -155 -99 callgsubr
            160 rlineto
            return
          </CharString>
          <CharString index="82">
            hvcurveto
            -81 callgsubr
            return
          </CharString>
          <CharString index="83">
            rmoveto
            26 3 -16 19 -25 hhcurveto
            -25 -23 -19 -26 -4 hvcurveto
            -25 -4 16 -18 25 hhcurveto
            25 23 18 25 5 hvcurveto
            return
          </CharString>
          <CharString index="84">
            231 686 62 callsubr
            return
          </CharString>
          <CharString index="85">
            hlineto
            -13 callgsubr
            return
          </CharString>
          <CharString index="86">
            8 46 273 rmoveto
            -173 -31 93 -108 154 hhcurveto
            137 103 77 109 44 hvcurveto
            -75 hlineto
            -80 -33 -73 -47 -93 hhcurveto
            -107 -73 74 148 26 hvcurveto
            148 26 100 73 107 hhcurveto
            92 57 -48 -78 4 hvcurveto
            75 hlineto
            113 -5 -76 73 -137 hhcurveto
            -154 -130 -108 -173 -31 hvcurveto
            return
          </CharString>
          <CharString index="87">
            3 88 54 72 callsubr
            return
          </CharString>
          <CharString index="88">
            rmoveto
            104 17 84 68 97 hhcurveto
            100 54 -71 -101 -18 hvcurveto
            -98 -18 -79 -69 -99 hhcurveto
            -97 -59 67 100 18 hvcurveto
            398 hmoveto
            101 18 79 71 101 hhcurveto
            96 59 -68 -104 -18 hvcurveto
            -100 -18 -84 -67 -97 hhcurveto
            -99 -54 69 98 17 hvcurveto
            return
          </CharString>
          <CharString index="89">
            -50 callsubr
            endchar
          </CharString>
          <CharString index="90">
            305 -57 callsubr
            return
          </CharString>
          <CharString index="91">
            rmoveto
            -119 84 -11 -57 120 -82 148 82 10 57 rlineto
            endchar
          </CharString>
          <CharString index="92">
            24 -14 callsubr
            return
          </CharString>
          <CharString index="93">
            -75 89 -119 hhcurveto
            -97 -69 -51 -64 -38 hvcurveto
            41 235 rlineto
            return
          </CharString>
          <CharString index="94">
            rmoveto
            -30 callsubr
            return
          </CharString>
          <CharString index="95">
            121 -45 callsubr
            return
          </CharString>
          <CharString index="96">
            74 19 callsubr
            return
          </CharString>
          <CharString index="97">
            -51 callsubr
            -632 -102 callsubr
            430 123 callgsubr
            -125 -107 -79 -128 -31 hvcurveto
            0 vlineto
            -136 -36 -91 -70 -129 -71 callsubr
            return
          </CharString>
          <CharString index="98">
            hhcurveto
            -144 -118 -96 -144 -24 hvcurveto
            -144 -24 95 -94 141 hhcurveto
            return
          </CharString>
          <CharString index="99">
            260 rcurveline
            32 40 51 18 52 hhcurveto
            -65 -383 -23 callgsubr
            return
          </CharString>
          <CharString index="100">
            rmoveto
            -106 -36 334 callgsubr
            -272 rlineto
            -84 -19 -63 -68 -92 hhcurveto
            697 -66 rmoveto
            -73 -37 51 88 13 hvcurveto
            2 17 rlineto
            126 21 -66 88 -110 hhcurveto
            -97 -67 -52 -65 -39 98 callsubr
            889 329 callsubr
            -56 -57 -74 hhcurveto
            682 490 -87 callgsubr
            -1641 -43 callgsubr
            76 61 36 56 39 hvcurveto
            -52 -299 rlineto
            63 hlineto
            59 335 rlineto
            85 17 64 91 116 hhcurveto
            79 54 -66 -105 -16 hvcurveto
            0 vlineto
            -2 -14 -16 -107 59 -79 108 -1 rlinecurve
            115 -1 81 82 21 116 20 111 rcurveline
            209 hlineto
            -78 -447 64 callsubr
          </CharString>
          <CharString index="101">
            rlineto
            -147 -26 3 callgsubr
            return
          </CharString>
          <CharString index="102">
            104 callgsubr
            -1557 -102 callsubr
            1354 339 callsubr
            -30 -167 rlineto
            -82 -15 -47 -57 -79 hhcurveto
            -73 -41 54 87 12 hvcurveto
            2 12 rlineto
            119 17 -55 80 -111 hhcurveto
            -110 -66 -83 -72 307 callsubr
            -2 -36 84 -108 hhcurveto
            -123 -92 -82 -142 -24 hvcurveto
            -137 -23 63 -108 151 hhcurveto
            10 11 1 1 12 hvcurveto
            360 callgsubr
            -43 81 104 18 hvcurveto
            101 18 62 69 97 hhcurveto
            93 24 -81 -119 -15 hvcurveto
            -1 -13 174 callgsubr
            13 rlineto
            107 14 67 93 92 hhcurveto
            88 29 -65 -97 -15 hvcurveto
            -114 -16 60 -76 117 hhcurveto
            117 72 81 115 21 hvcurveto
            19 112 rlineto
            210 350 callgsubr
            endchar
          </CharString>
          <CharString index="103">
            104 callgsubr
            -594 -102 callsubr
            403 hlineto
            -19 -107 rlineto
            -119 -21 -74 -58 -115 hhcurveto
            -107 hlineto
            -34 -196 rlineto
            -125 -25 62 -90 128 hhcurveto
            117 76 79 122 21 hvcurveto
            4 1 5 1 7 vhcurveto
            -62 hlineto
            -3 -17 rlineto
            -87 -15 -53 -58 -79 hhcurveto
            -88 -36 66 91 18 hvcurveto
            26 146 rlineto
            62 hlineto
            148 89 81 149 27 hvcurveto
            18 107 rlineto
            return
          </CharString>
          <CharString index="104">
            rrcurveto
            106 19 -77 61 -98 hhcurveto
            -100 -96 -61 -110 -19 hvcurveto
            -18 -100 66 -60 81 -16 -98 -47 -103 -47 -21 -116 rrcurveto
            -94 -18 56 -69 104 hhcurveto
            87 53 53 29 16 309 callgsubr
            return
          </CharString>
          <CharString index="105">
            rlineto
            -142 hlineto
            -10 -54 rlineto
            141 hlineto
            -121 -686 328 callgsubr
            -141 return
          </CharString>
          <CharString index="106">
            68 115 19 hvcurveto
            111 20 return
          </CharString>
          <CharString index="107">
            -26 81 -90 123 -19 callgsubr
          </CharString>
          <CharString index="108">
            834 494 rmoveto
            104 81 -65 -129 -26 hvcurveto
            -394 hlineto
            127 30 103 67 102 hhcurveto
            199 -321 rmoveto
            -75 hlineto
            -74 -31 -75 -48 -97 hhcurveto
            -95 -86 64 133 16 hvcurveto
            460 hlineto
            7 19 3 14 4 21 rrcurveto
            136 24 -75 116 -158 hhcurveto
            -95 -87 -42 -90 -57 hvcurveto
            22 124 rlineto
            -66 hlineto
            -22 -123 rlineto
            80 -23 -65 51 -102 hhcurveto
            -153 -131 -109 -171 -30 hvcurveto
            -171 -30 92 -111 150 hhcurveto
            105 87 57 77 48 hvcurveto
            -23 -126 rlineto
            66 hlineto
            23 126 rlineto
            -85 18 77 -49 97 hhcurveto
            133 101 78 103 43 hvcurveto
            -915 101 rmoveto
            139 24 103 80 114 hhcurveto
            112 77 -84 -136 -25 hvcurveto
            -136 -24 -106 -84 -112 hhcurveto
            -114 -74 83 138 25 hvcurveto
            return
          </CharString>
          <CharString index="109">
            rlineto
            13 callgsubr
            return
          </CharString>
          <CharString index="110">
            rmoveto
            24 4 -15 19 -25 hhcurveto
            -25 -22 -19 -24 -5 hvcurveto
            -25 -4 15 -19 25 hhcurveto
            25 23 19 25 4 hvcurveto
            102 286 321 callgsubr
            -9 -54 rlineto
            432 69 callsubr
            -133 321 callsubr
            -12 callgsubr
            return
          </CharString>
          <CharString index="111">
            hlineto
            -40 -229 rlineto
            64 -23 -57 49 -103 hhcurveto
            return
          </CharString>
          <CharString index="112">
            hhcurveto
            -114 -63 -80 -73 -29 hvcurveto
            -107 callsubr
            return
          </CharString>
          <CharString index="113">
            -70 callgsubr
            428 339 104 callgsubr
            -848 -102 callsubr
            300 41 callsubr
            -74 -29 -76 88 callsubr
            -146 -27 86 -91 149 hhcurveto
            6 6 0 1 5 hvcurveto
            -170 -141 -1 -4 rlineto
            72 hlineto
            214 179 48 28 37 42 24 45 rlinecurve
            105 callsubr
          </CharString>
          <CharString index="114">
            -77 -126 -22 hvcurveto
            -16 -86 30 -63 59 -32 rrcurveto
            -59 -35 -64 -53 -89 hhcurveto
            return
          </CharString>
          <CharString index="115">
            hlineto
            -9 -54 rlineto
            return
          </CharString>
          <CharString index="116">
            hhcurveto
            -39 hlineto
            -7 -44 rlineto
            40 hlineto
            91 43 -7 -187 69 hvcurveto
            87 -87 -37 3 -100 hhcurveto
            -38 hlineto
            -8 -43 rlineto
            39 hlineto
            return
          </CharString>
          <CharString index="117">
            47 hlineto
            50 18 -17 -31 -6 hvcurveto
            -34 -5 -25 -17 -50 hhcurveto
            -86 hlineto
            -8 -47 rlineto
            100 hlineto
            70 53 38 60 11 hvcurveto
            11 62 -44 33 -79 -2 return
          </CharString>
          <CharString index="118">
            hhcurveto
            81 62 35 56 40 hvcurveto
            -52 -298 64 callsubr
          </CharString>
          <CharString index="119">
            9 49 rlineto
            -9 -24 -24 -5 -19 hhcurveto
            -37 -22 18 33 6 hvcurveto
            5 26 20 24 52 23 return
          </CharString>
          <CharString index="120">
            rmoveto
            -134 -69 85 137 25 -81 callsubr
            216 hlineto
            -56 -316 rlineto
            1 vlineto
            -118 -20 -102 -79 -117 hhcurveto
            238 -174 rmoveto
            120 686 rlineto
            141 hlineto
            70 callgsubr
            -22 -20 279 callsubr
            return
          </CharString>
          <CharString index="121">
            rmoveto
            -62 -11 39 -38 55 hhcurveto
            55 52 38 62 11 hvcurveto
            62 11 -38 38 -55 hhcurveto
            -55 -52 -38 -62 -12 hvcurveto
            161 hmoveto
            -37 -6 -31 -24 -34 hhcurveto
            -34 -22 24 37 7 hvcurveto
            38 7 29 23 34 hhcurveto
            34 23 -23 -38 -7 hvcurveto
            return
          </CharString>
          <CharString index="122">
            262 rmoveto
            32 callsubr
            return
          </CharString>
          <CharString index="123">
            rmoveto
            184 -119 9 54 -182 128 rlineto
            return
          </CharString>
          <CharString index="124">
            -18 493 496 rmoveto
            -86 -15 -61 -62 -115 hhcurveto
            -141 hlineto
            52 295 rlineto
            140 hlineto
            118 38 -58 -89 -16 hvcurveto
            -340 203 rmoveto
            164 callsubr
            70 hlineto
            51 292 rlineto
            130 hlineto
            121 -292 rlineto
            84 hlineto
            -128 298 123 21 68 81 17 96 rlinecurve
            115 20 -60 88 -162 hhcurveto
            return
          </CharString>
          <CharString index="125">
            -66 callsubr
            -237 rlineto
            return
          </CharString>
          <CharString index="126">
            71 140 callsubr
            return
          </CharString>
          <CharString index="127">
            -70 callgsubr
            428 339 104 callgsubr
            -848 hlineto
            -10 -54 rlineto
            300 hlineto
            -23 -133 rlineto
            -127 -22 -74 -29 -76 hhcurveto
            -38 hlineto
            -28 -162 rlineto
            -146 -27 86 -91 149 hhcurveto
            114 83 69 81 44 hvcurveto
            105 callsubr
          </CharString>
          <CharString index="128">
            311 callgsubr
            1 -14 rrcurveto
            63 hlineto
            15 1 13 2 12 vhcurveto
            73 return
          </CharString>
          <CharString index="129">
            69 callsubr
            -127 return
          </CharString>
          <CharString index="130">
            hhcurveto
            -151 -97 callsubr
            endchar
          </CharString>
          <CharString index="131">
            21 callgsubr
            308 callgsubr
            -144 -26 81 -90 123 hhcurveto
            95 68 49 63 40 hvcurveto
            -39 -218 rlineto
            -140 161 -107 callgsubr
            return
          </CharString>
          <CharString index="132">
            -102 callsubr
            326 hlineto
            -42 -235 rlineto
            -52 -9 -29 -56 -72 hhcurveto
            -69 -14 55 325 callgsubr
            -62 hlineto
            -2 -10 -2 -7 -2 -10 rrcurveto
            -90 return
          </CharString>
          <CharString index="133">
            hhcurveto
            10 8 1 1 12 hvcurveto
            67 callgsubr
            return
          </CharString>
          <CharString index="134">
            hvcurveto
            -166 -27 89 -108 161 -67 callsubr
          </CharString>
          <CharString index="135">
            -60 189 4 rmoveto
            -152 -261 rlineto
            74 hlineto
            465 803 rlineto
            -73 hlineto
            -261 -463 -103 463 rlineto
            -78 hlineto
            return
          </CharString>
          <CharString index="136">
            hhcurveto
            75 hlineto
            11 60 rlineto
            -64 hlineto
            -64 -19 21 67 11 hvcurveto
            60 339 rlineto
            151 hlineto
            11 59 rlineto
            -151 hlineto
            24 137 rlineto
            -70 hlineto
            -24 -137 rlineto
            -76 314 callsubr
          </CharString>
          <CharString index="137">
            91 567 rmoveto
            -87 -15 49 -56 81 hhcurveto
            80 70 56 87 15 hvcurveto
            85 15 -49 56 -81 hhcurveto
            -80 -70 -56 -85 -15 hvcurveto
            157 96 rmoveto
            50 27 -35 -61 -10 hvcurveto
            -62 -11 -41 -36 -49 hhcurveto
            -51 -27 36 62 11 hvcurveto
            61 11 40 35 50 hhcurveto
            -223 -663 rmoveto
            70 hlineto
            534 700 rlineto
            -70 hlineto
            -274 -567 rmoveto
            -86 -15 50 -56 80 hhcurveto
            80 70 56 86 15 hvcurveto
            86 15 -50 56 -80 hhcurveto
            -80 -70 291 callgsubr
            157 97 rmoveto
            49 28 -35 -62 -11 hvcurveto
            -61 -11 -40 -35 -50 hhcurveto
            -49 -28 35 61 11 hvcurveto
            62 11 40 35 50 hhcurveto
            return
          </CharString>
          <CharString index="138">
            19 221 377 rmoveto
            -93 -22 -69 -66 -16 -97 rrcurveto
            -131 -24 86 -82 153 hhcurveto
            155 114 82 131 24 hvcurveto
            16 96 -45 66 -86 23 88 27 55 62 14 78 rrcurveto
            106 19 -67 83 -153 hhcurveto
            -153 -97 -82 -107 -19 hvcurveto
            -14 -80 32 -59 80 -28 rrcurveto
            160 297 rmoveto
            101 58 -48 -89 -16 hvcurveto
            -84 -14 -76 -52 -101 hhcurveto
            -100 -58 52 83 15 hvcurveto
            91 16 76 47 99 hhcurveto
            -58 -327 rmoveto
            103 75 -46 -106 -19 hvcurveto
            -98 -17 -83 -59 -113 hhcurveto
            -114 -63 58 99 18 hvcurveto
            107 19 92 45 102 hhcurveto
            endchar
          </CharString>
          <CharString index="139">
            -107 -35 -62 callgsubr
            return
          </CharString>
          <CharString index="140">
            -2 hlineto
            78 -15 -56 66 -112 hhcurveto
            -125 -111 -90 -138 -24 hvcurveto
            -132 -23 81 -91 324 callgsubr
            66 81 36 hvcurveto
            return
          </CharString>
          <CharString index="141">
            59 callgsubr
            103 hlineto
            return
          </CharString>
          <CharString index="142">
            131 callgsubr
            -15 -91 51 -73 104 -22 -184 -162 rcurveline
            72 hlineto
            96 callgsubr
            -124 158 107 16 61 63 15 82 rlinecurve
            231 callsubr
            endchar
          </CharString>
          <CharString index="143">
            rrcurveto
            75 callgsubr
            return
          </CharString>
          <CharString index="144">
            rmoveto
            -134 -71 78 137 27 hvcurveto
            372 callsubr
            vhcurveto
            128 3 89 60 23 102 callsubr
            return
          </CharString>
          <CharString index="145">
            -30 callsubr
            138 116 35 callgsubr
            -137 -96 -101 -148 -4 hvcurveto
            63 hlineto
            109 65 84 103 79 49 -56 -92 -15 vhcurveto
            -109 -20 -99 -53 -108 hhcurveto
            -148 hlineto
            -30 -171 2 callgsubr
            160 -208 rmoveto
            121 43 callgsubr
          </CharString>
          <CharString index="146">
            9 51 rlineto
            -361 71 callgsubr
            return
          </CharString>
          <CharString index="147">
            -243 262 rcurveline
            32 41 51 17 51 hhcurveto
            return
          </CharString>
          <CharString index="148">
            22 callsubr
            -22 return
          </CharString>
          <CharString index="149">
            0 27 hhcurveto
            139 121 56 141 24 hvcurveto
            103 18 -58 77 -108 hhcurveto
            -24 -22 -3 -6 -21 hvcurveto
            -740 -102 callsubr
            660 hlineto
            -40 -41 -21 -59 -1 -66 rrcurveto
            58 hlineto
            100 -1 56 74 96 hhcurveto
            76 34 -55 -68 -12 hvcurveto
            -124 -21 307 callgsubr
            -399 hlineto
            -121 -97 -67 -118 -20 hvcurveto
            -113 -20 73 -78 112 hhcurveto
            110 90 70 111 21 hvcurveto
            11 64 -20 49 -33 29 rrcurveto
            181 hlineto
            -155 -22 88 -109 176 hhcurveto
            return
          </CharString>
          <CharString index="150">
            153 581 128 callgsubr
            -205 hlineto
            -65 -372 rlineto
            -128 -23 -111 -82 -118 hhcurveto
            -142 -67 86 129 26 hvcurveto
            -1 16 20 0 27 hhcurveto
            140 121 56 141 24 hvcurveto
            103 19 -59 77 -110 hhcurveto
            -133 -83 -99 -130 -1 hvcurveto
            58 hlineto
            98 -1 56 76 95 hhcurveto
            77 34 377 callsubr
            -101 hhcurveto
            -101 hlineto
            -5 -16 -4 -16 -2 -15 rrcurveto
            -164 -30 93 -106 165 return
          </CharString>
          <CharString index="151">
            rmoveto
            -88 callgsubr
            851 hlineto
            -40 -227 rlineto
            63 -22 -58 48 -102 hhcurveto
            -88 -80 -42 -74 -49 hvcurveto
            61 -24 -60 35 -84 hhcurveto
            -125 -97 154 callsubr
            690 102 315 callgsubr
            123 39 -87 -84 -9 hvcurveto
            -4 -22 rlineto
            -77 -19 -69 -92 -125 hhcurveto
            endchar
          </CharString>
          <CharString index="152">
            26 141 -87 99 -128 14 24 135 rcurveline
            337 -28 callgsubr
            return
          </CharString>
          <CharString index="153">
            -32 7 41 -71 117 hhcurveto
            124 -1 70 72 16 89 rrcurveto
            130 23 -98 42 -100 hhcurveto
            -45 hlineto
            138 callsubr
            77 16 62 hhcurveto
            175 -27 callgsubr
            return
          </CharString>
          <CharString index="154">
            rmoveto
            -197 119 callgsubr
            197 hlineto
            return
          </CharString>
          <CharString index="155">
            -110 -19 71 -80 374 callsubr
            91 71 110 19 hvcurveto
            11 64 -20 49 -32 29 rrcurveto
            190 hlineto
            -172 -28 91 -123 160 hhcurveto
            112 77 52 62 43 hvcurveto
            -41 -233 56 callsubr
          </CharString>
          <CharString index="156">
            230 callgsubr
            -22 -125 67 -93 113 -27 -181 -160 rcurveline
            72 hlineto
            171 152 rlineto
            4 hlineto
            117 -152 rlineto
            65 hlineto
            -122 156 130 22 92 97 23 136 rlinecurve
            202 callsubr
            endchar
          </CharString>
          <CharString index="157">
            -164 445 546 rmoveto
            -356 hlineto
            -11 -58 rlineto
            276 hlineto
            -356 -430 -11 -58 rlineto
            366 hlineto
            11 58 rlineto
            -286 hlineto
            356 430 rlineto
            return
          </CharString>
          <CharString index="158">
            hhcurveto
            101 268 callsubr
            return
          </CharString>
          <CharString index="159">
            -20 106 534 rmoveto
            68 hlineto
            87 27 74 48 88 hhcurveto
            96 41 -53 -76 -13 hvcurveto
            -88 -16 -75 -45 -137 hhcurveto
            -22 hlineto
            -11 -59 rlineto
            21 hlineto
            140 71 -46 -106 -18 hvcurveto
            -79 -14 -62 -63 -107 hhcurveto
            -105 -51 65 85 4 hvcurveto
            -68 hlineto
            -136 -10 85 -73 136 hhcurveto
            150 88 86 109 20 hvcurveto
            18 106 -53 62 -87 18 1 5 rcurveline
            96 15 60 70 14 81 rrcurveto
            102 18 -59 81 -138 hhcurveto
            -134 -104 -74 -122 -32 hvcurveto
            endchar
          </CharString>
          <CharString index="160">
            20 77 191 rmoveto
            -109 -7 53 -85 138 hhcurveto
            189 82 139 236 42 hvcurveto
            210 37 -26 148 -202 hhcurveto
            -159 -95 -106 -131 -23 hvcurveto
            -152 -26 78 -86 138 hhcurveto
            90 87 44 74 39 hvcurveto
            -235 -36 -81 -82 -120 hhcurveto
            -92 -42 50 85 1 hvcurveto
            175 124 rmoveto
            -114 -48 70 110 19 hvcurveto
            107 19 78 69 103 hhcurveto
            123 43 -85 -103 -19 hvcurveto
            -109 -19 -93 -59 -92 hhcurveto
            endchar
          </CharString>
          <CharString index="161">
            -1 callgsubr
            320 hlineto
            return
          </CharString>
          <CharString index="162">
            159 callgsubr
            -316 rlineto
            1 vlineto
            return
          </CharString>
          <CharString index="163">
            -72 callsubr
            endchar
          </CharString>
          <CharString index="164">
            -21 -114 60 -82 110 -1 rlinecurve
            62 callgsubr
            return
          </CharString>
          <CharString index="165">
            46 callgsubr
            269 -269 rlineto
            return
          </CharString>
          <CharString index="166">
            120 -34 callgsubr
            return
          </CharString>
          <CharString index="167">
            -57 callsubr
            158 -253 53 callgsubr
            -735 -102 callsubr
            336 158 callgsubr
            -150 -27 101 -105 147 hhcurveto
            endchar
          </CharString>
          <CharString index="168">
            -99 callgsubr
            160 rlineto
            490 hlineto
            -64 -363 -72 callsubr
            return
          </CharString>
          <CharString index="169">
            rmoveto
            -51 callsubr
            return
          </CharString>
          <CharString index="170">
            125 386 699 rmoveto
            -208 hlineto
            -56 -318 rlineto
            -95 hlineto
            -11 -65 rlineto
            94 hlineto
            -56 -316 rlineto
            208 hlineto
            233 160 131 217 38 hvcurveto
            219 39 -113 132 -233 hhcurveto
            -251 -644 rmoveto
            46 261 rlineto
            204 hlineto
            11 65 rlineto
            -204 hlineto
            46 261 rlineto
            138 hlineto
            197 285 callsubr
          </CharString>
          <CharString index="171">
            137 callsubr
            endchar
          </CharString>
          <CharString index="172">
            rmoveto
            -107 -30 -1 callgsubr
            817 102 callgsubr
            -112 -85 -70 -117 -33 hvcurveto
            -57 -27 -52 -42 -74 hhcurveto
            return
          </CharString>
          <CharString index="173">
            -28 hvcurveto
            97 callsubr
            -123 -91 -85 177 callgsubr
            -137 return
          </CharString>
          <CharString index="174">
            -7 callgsubr
            -100 -75 -113 hhcurveto
            return
          </CharString>
          <CharString index="175">
            149 callgsubr
            121 686 rlineto
            return
          </CharString>
          <CharString index="176">
            152 callgsubr
            rlineto
            return
          </CharString>
          <CharString index="177">
            36 callgsubr
            -33 -35 40 callsubr
            return
          </CharString>
          <CharString index="178">
            rmoveto
            54 hlineto
            30 13 26 20 42 hhcurveto
            41 22 -23 -35 -7 hvcurveto
            -38 -7 -32 -21 -41 hhcurveto
            -48 hlineto
            -7 -39 rlineto
            48 hlineto
            42 27 -21 -38 -7 hvcurveto
            -36 -6 -31 -22 -43 hhcurveto
            -38 -25 15 45 1 hvcurveto
            -56 hlineto
            -68 -6 42 -36 75 hhcurveto
            81 56 45 51 9 hvcurveto
            8 44 -24 28 -35 11 1 2 rcurveline
            40 11 30 28 7 41 rrcurveto
            58 10 -46 43 -70 hhcurveto
            -76 -54 -40 -55 -16 hvcurveto
            endchar
          </CharString>
          <CharString index="179">
            24 139 callsubr
            return
          </CharString>
          <CharString index="180">
            3 1 4 1 4 return
          </CharString>
          <CharString index="181">
            -94 callgsubr
            419 285 47 callsubr
            204 hmoveto
            -75 callsubr
            return
          </CharString>
          <CharString index="182">
            288 262 237 callgsubr
            return
          </CharString>
          <CharString index="183">
            71 107 hhcurveto
            33 hlineto
            39 callsubr
            return
          </CharString>
          <CharString index="184">
            48 -56 -78 -15 hvcurveto
            -75 123 callsubr
            return
          </CharString>
          <CharString index="185">
            -139 -99 -10 -56 -74 -27 -68 rlinecurve
            return
          </CharString>
          <CharString index="186">
            -1 -9 hhcurveto
            -116 return
          </CharString>
          <CharString index="187">
            42 callgsubr
            65 97 119 hhcurveto
            return
          </CharString>
          <CharString index="188">
            93 callsubr
            -130 -23 return
          </CharString>
          <CharString index="189">
            128 callsubr
            123 699 rlineto
            -70 hlineto
            return
          </CharString>
          <CharString index="190">
            70 124 callgsubr
            return
          </CharString>
          <CharString index="191">
            11 79 360 rmoveto
            -204 -36 18 -158 197 hhcurveto
            196 75 158 204 36 hvcurveto
            203 36 -20 158 -196 hhcurveto
            -196 -74 -158 -203 -36 hvcurveto
            417 hmoveto
            -163 -29 -47 -135 -151 hhcurveto
            -152 1 135 163 30 hvcurveto
            162 28 47 135 151 hhcurveto
            152 -2 -135 -162 -28 hvcurveto
            endchar
          </CharString>
          <CharString index="192">
            315 callgsubr
            129 38 -96 -87 -16 hvcurveto
            -79 -15 -70 -100 -130 hhcurveto
            return
          </CharString>
          <CharString index="193">
            -145 -25 94 -92 132 hhcurveto
            12 11 1 1 12 hvcurveto
            -196 -155 rlineto
            71 hlineto
            174 582 rmoveto
            131 45 -100 -92 -17 hvcurveto
            -6 -40 -20 -43 -32 -35 -244 -8 callsubr
            endchar
          </CharString>
          <CharString index="194">
            94 callsubr
            -44 -17 return
          </CharString>
          <CharString index="195">
            hhcurveto
            -38 hlineto
            269 callsubr
            return
          </CharString>
          <CharString index="196">
            66 callsubr
            -24 64 -108 154 26 callsubr
            60 73 97 hhcurveto
            96 24 -81 -119 -15 hvcurveto
            -1 -13 174 callgsubr
            13 rlineto
            121 16 68 79 97 hhcurveto
            return
          </CharString>
          <CharString index="197">
            -57 rlineto
            -1 12 14 -1 11 hhcurveto
            return
          </CharString>
          <CharString index="198">
            rmoveto
            -133 -65 79 126 14 hvcurveto
            -11 1 rlineto
            8 0 6 6 vvcurveto
            6 hlineto
            134 94 64 137 24 hvcurveto
            15 85 rlineto
            216 67 callsubr
            -409 356 70 callsubr
            endchar
          </CharString>
          <CharString index="199">
            -1 5 -2 4 -6 21 0 23 4 22 rrcurveto
            70 12 42 37 55 hhcurveto
            49 28 -35 -51 -12 hvcurveto
            50 hlineto
            81 20 -39 56 -76 hhcurveto
            -93 -49 -71 -71 -12 hvcurveto
            -1 -4 rlineto
            195 -74 -43 9 -110 9 callsubr
            return
          </CharString>
          <CharString index="200">
            93 16 80 76 callsubr
            return
          </CharString>
          <CharString index="201">
            51 callgsubr
            -62 -8 -71 return
          </CharString>
          <CharString index="202">
            128 callsubr
            122 callsubr
            return
          </CharString>
          <CharString index="203">
            120 97 callgsubr
            return
          </CharString>
          <CharString index="204">
            -2 hlineto
            362 callsubr
            return
          </CharString>
          <CharString index="205">
            hvcurveto
            173 callsubr
            return
          </CharString>
          <CharString index="206">
            rmoveto
            -100 -139 rlineto
            49 hlineto
            114 139 rlineto
            -212 hmoveto
            -90 -139 rlineto
            49 hlineto
            104 139 rlineto
            endchar
          </CharString>
          <CharString index="207">
            rrcurveto
            -93 callgsubr
            124 hlineto
            -17 -29 -13 -34 -7 -37 rrcurveto
            -149 -27 86 -91 133 -77 callgsubr
          </CharString>
          <CharString index="208">
            22 122 -62 85 -103 18 24 132 rcurveline
            285 -28 callgsubr
            -1064 -102 callsubr
            717 hlineto
            -23 -130 -101 -7 -69 -63 -39 -73 rlinecurve
            194 callgsubr
            return
          </CharString>
          <CharString index="209">
            137 90 callgsubr
            return
          </CharString>
          <CharString index="210">
            rmoveto
            -171 -30 92 -111 return
          </CharString>
          <CharString index="211">
            hlineto
            16 88 rlineto
            124 22 -36 356 callsubr
            -101 -72 -66 -102 -17 hvcurveto
            311 callgsubr
            -14 vvcurveto
            62 hlineto
            15 0 12 2 13 vhcurveto
            72 14 47 42 61 hhcurveto
            73 22 -55 -87 -16 hvcurveto
            -17 -97 253 callgsubr
            -87 -56 -99 -19 hvcurveto
            -100 -17 61 -67 104 hhcurveto
            108 74 71 130 22 hvcurveto
            return
          </CharString>
          <CharString index="212">
            -3 16 18 -2 18 hhcurveto
            124 103 76 128 22 hvcurveto
            126 22 -72 77 -127 hhcurveto
            -126 -100 7 callsubr
            -88 callgsubr
            endchar
          </CharString>
          <CharString index="213">
            53 hlineto
            38 14 31 27 34 59 21 -66 73 hhcurveto
            66 53 43 86 30 hvcurveto
            -53 hlineto
            -39 -13 -32 -26 -34 -58 -22 66 -73 hhcurveto
            -66 -52 -43 -86 -31 hvcurveto
            return
          </CharString>
          <CharString index="214">
            rmoveto
            130 46 -100 -92 -17 hvcurveto
            -7 -40 -20 -43 -32 -35 -243 260 rcurveline
            32 40 51 18 52 hhcurveto
            return
          </CharString>
          <CharString index="215">
            101 361 699 rmoveto
            -208 hlineto
            164 callsubr
            207 hlineto
            233 160 131 217 39 hvcurveto
            219 39 -114 132 -233 hhcurveto
            -251 -644 rmoveto
            103 587 rlineto
            137 hlineto
            198 161 callsubr
            return
          </CharString>
          <CharString index="216">
            -32 callgsubr
            11 54 82 callgsubr
            return
          </CharString>
          <CharString index="217">
            rmoveto
            22 148 callgsubr
            return
          </CharString>
          <CharString index="218">
            8 callsubr
            174 hlineto
            -43 -237 rlineto
            -145 -26 54 -94 135 hhcurveto
            6 5 0 1 6 hvcurveto
            -259 -220 rlineto
            71 hlineto
            294 256 21 15 18 18 15 22 rlinecurve
            -53 -302 rlineto
            64 hlineto
            58 333 rlineto
            86 18 64 92 116 hhcurveto
            90 60 269 callgsubr
            return
          </CharString>
          <CharString index="219">
            rmoveto
            -138 -25 -102 -83 -115 hhcurveto
            -112 -77 84 136 25 hvcurveto
            136 24 107 84 111 hhcurveto
            115 73 -80 177 callgsubr
            endchar
          </CharString>
          <CharString index="220">
            hlineto
            -33 299 callgsubr
            32 callgsubr
          </CharString>
          <CharString index="221">
            -15 -82 38 -62 66 -25 -59 -25 -52 -55 -12 -75 rrcurveto
            -106 -16 66 -73 103 hhcurveto
            67 62 31 53 40 hvcurveto
            -27 -151 rlineto
            59 hlineto
            99 562 rlineto
            -55 hlineto
            -93 -22 -86 -40 -69 hhcurveto
            -91 -49 55 80 15 hvcurveto
            93 18 78 51 114 hhcurveto
            149 hlineto
            30 172 rlineto
            return
          </CharString>
          <CharString index="222">
            54 rlineto
            -205 342 callgsubr
            -174 hlineto
            16 91 rlineto
            124 22 return
          </CharString>
          <CharString index="223">
            hlineto
            -120 -686 137 callsubr
            return
          </CharString>
          <CharString index="224">
            55 callgsubr
            -101 return
          </CharString>
          <CharString index="225">
            hlineto
            -22 -126 rlineto
            -32 hlineto
            return
          </CharString>
          <CharString index="226">
            rrcurveto
            38 callgsubr
          </CharString>
          <CharString index="227">
            hlineto
            -122 -94 -68 -118 156 callsubr
            return
          </CharString>
          <CharString index="228">
            rmoveto
            58 hlineto
            40 11 27 23 38 hhcurveto
            33 23 -21 -43 -8 hvcurveto
            -8 -48 -38 -33 -44 -33 -128 -95 rcurveline
            -7 -40 rlineto
            247 hlineto
            8 47 rlineto
            -180 hlineto
            93 64 68 47 39 37 10 56 rlinecurve
            60 11 -38 46 -72 hhcurveto
            -79 -50 -48 -59 -14 hvcurveto
            endchar
          </CharString>
          <CharString index="229">
            96 546 rlineto
            -70 hlineto
            return
          </CharString>
          <CharString index="230">
            -14 -66 -58 -80 -42 callsubr
            return
          </CharString>
          <CharString index="231">
            hlineto
            -22 -118 rlineto
            -81 hlineto
            return
          </CharString>
          <CharString index="232">
            6 callgsubr
            -111 -19 71 235 callsubr
            111 20 297 callgsubr
            234 113 callsubr
          </CharString>
          <CharString index="233">
            hvcurveto
            0 vlineto
            -26 -147 142 callgsubr
          </CharString>
          <CharString index="234">
            rmoveto
            74 callgsubr
            return
          </CharString>
          <CharString index="235">
            -376 256 callsubr
            return
          </CharString>
          <CharString index="236">
            8 callsubr
            442 254 callgsubr
            74 -26 -94 -17 hvcurveto
            -62 -11 -53 -54 -91 hhcurveto
            -104 -47 62 81 5 hvcurveto
            -57 hlineto
            -45 -255 rlineto
            61 hlineto
            return
          </CharString>
          <CharString index="237">
            -102 callsubr
            444 341 callsubr
            -73 -13 -56 -60 -96 hhcurveto
            -35 hlineto
            -9 -56 rlineto
            42 hlineto
            121 30 -89 -75 -14 hvcurveto
            -94 -17 -73 -68 -98 hhcurveto
            -97 -64 71 93 17 hvcurveto
            -61 hlineto
            -129 -22 82 -92 138 hhcurveto
            136 return
          </CharString>
          <CharString index="238">
            162 rmoveto
            -99 -68 43 92 17 171 callgsubr
            -34 46 84 14 hvcurveto
            15 82 rlineto
            369 hlineto
            -59 -334 rlineto
            -113 -26 -105 -77 -115 hhcurveto
            509 524 -87 callgsubr
            return
          </CharString>
          <CharString index="239">
            hhcurveto
            -38 hlineto
            -9 -53 rlineto
            39 hlineto
            99 34 -12 -171 79 hvcurveto
            -141 -31 callgsubr
            return
          </CharString>
          <CharString index="240">
            hlineto
            -23 -26 -16 -33 -6 -38 51 callgsubr
            return
          </CharString>
          <CharString index="241">
            -52 724 rmoveto
            11 59 rlineto
            75 15 36 75 90 hhcurveto
            88 12 -75 -75 -14 hvcurveto
            -8 -43 -2 callsubr
            hlineto
            8 41 return
          </CharString>
          <CharString index="242">
            94 callgsubr
            endchar
          </CharString>
          <CharString index="243">
            -46 50 81 15 hvcurveto
            63 return
          </CharString>
          <CharString index="244">
            rlineto
            169 callsubr
            return
          </CharString>
          <CharString index="245">
            -64 -53 24 68 12 hvcurveto
            78 14 return
          </CharString>
          <CharString index="246">
            137 15 85 rcurveline
            return
          </CharString>
          <CharString index="247">
            131 23 hvcurveto
            return
          </CharString>
          <CharString index="248">
            hlineto
            100 4 -62 83 -134 hhcurveto
            -135 -81 -83 -86 -29 hvcurveto
            61 hlineto
            53 24 57 61 98 hhcurveto
            111 39 -78 -86 -15 hvcurveto
            -91 -16 -68 -78 -111 hhcurveto
            -94 -44 59 54 hvcurveto
            -60 hlineto
            -84 -7 67 -84 133 hhcurveto
            return
          </CharString>
          <CharString index="249">
            -102 callsubr
            308 289 callsubr
            -84 95 callgsubr
            rrcurveto
            return
          </CharString>
          <CharString index="250">
            182 callsubr
            -16 -20 -33 hhcurveto
            -7 -35 rlineto
            return
          </CharString>
          <CharString index="251">
            rmoveto
            -134 216 callsubr
            25 198 callgsubr
            return
          </CharString>
          <CharString index="252">
            22 125 -55 68 -80 13 23 134 rcurveline
            return
          </CharString>
          <CharString index="253">
            rlineto
            63 hlineto
            58 327 rlineto
            -1 vlineto
            88 15 return
          </CharString>
          <CharString index="254">
            rmoveto
            80 15 323 callsubr
            return
          </CharString>
          <CharString index="255">
            hhcurveto
            498 512 -87 callgsubr
            return
          </CharString>
          <CharString index="256">
            hlineto
            -41 -235 rlineto
            -103 hlineto
            return
          </CharString>
          <CharString index="257">
            hvcurveto
            229 callgsubr
            return
          </CharString>
          <CharString index="258">
            80 callsubr
            90 60 -66 -106 -18 hvcurveto
            return
          </CharString>
          <CharString index="259">
            -139 -25 hvcurveto
            return
          </CharString>
          <CharString index="260">
            -23 -25 -244 262 rcurveline
            33 41 52 18 53 hhcurveto
            26 23 -4 -7 20 hvcurveto
            7 46 rlineto
            8 -23 -27 3 -25 hhcurveto
            -138 -121 -90 -148 -27 hvcurveto
            -150 -26 102 -90 134 hhcurveto
            93 78 43 66 return
          </CharString>
          <CharString index="261">
            -77 -126 -22 hvcurveto
            -16 -86 29 -64 60 -32 rrcurveto
            -59 -35 -64 -52 -89 hhcurveto
            return
          </CharString>
          <CharString index="262">
            149 callsubr
            -106 -90 -62 256 callgsubr
            75 callgsubr
            endchar
          </CharString>
          <CharString index="263">
            -21 hvcurveto
            -110 -19 71 144 callgsubr
            return
          </CharString>
          <CharString index="264">
            117 callgsubr
            -76 288 callgsubr
            return
          </CharString>
          <CharString index="265">
            -75 105 hhcurveto
            111 53 76 89 16 hvcurveto
            40 233 rlineto
            return
          </CharString>
          <CharString index="266">
            hlineto
            -32 -180 rlineto
            return
          </CharString>
          <CharString index="267">
            174 144 callsubr
            123 3 91 49 25 142 55 callsubr
            -118 -19 -104 -79 -115 hhcurveto
            return
          </CharString>
          <CharString index="268">
            81 -113 -181 -32 hvcurveto
            -180 -32 -120 -113 -198 hhcurveto
            return
          </CharString>
          <CharString index="269">
            -66 -42 168 callsubr
            return
          </CharString>
          <CharString index="270">
            246 callgsubr
            -15 hvcurveto
            return
          </CharString>
          <CharString index="271">
            -123 -699 rlineto
            return
          </CharString>
          <CharString index="272">
            790 297 265 callsubr
            269 -268 rlineto
            -47 -22 -52 -61 -95 hhcurveto
            627 428 rmoveto
            151 callgsubr
            63 -17 -52 50 -98 hhcurveto
            return
          </CharString>
          <CharString index="273">
            hvcurveto
            -144 -25 86 -92 139 hhcurveto
            116 80 63 76 43 hvcurveto
            -78 28 73 -46 112 hhcurveto
            111 83 54 64 45 hvcurveto
            -42 -237 5 callgsubr
          </CharString>
          <CharString index="274">
            -69 -116 hhcurveto
            -63 hlineto
            57 -21 -59 47 -109 hhcurveto
            return
          </CharString>
          <CharString index="275">
            221 callgsubr
            60 44 return
          </CharString>
          <CharString index="276">
            63 -44 callgsubr
            return
          </CharString>
          <CharString index="277">
            hlineto
            -53 -298 rlineto
            -115 -21 63 -79 114 20 callgsubr
            211 116 callsubr
            endchar
          </CharString>
          <CharString index="278">
            113 callgsubr
            34 hvcurveto
            -41 -236 rlineto
            return
          </CharString>
          <CharString index="279">
            15 85 rcurveline
            216 hlineto
            return
          </CharString>
          <CharString index="280">
            42 237 rlineto
            return
          </CharString>
          <CharString index="281">
            hvcurveto
            0 vlineto
            -26 -147 -99 callgsubr
            160 rlineto
            return
          </CharString>
          <CharString index="282">
            rmoveto
            -128 -110 -49 -101 -59 hvcurveto
            -279 276 rlineto
            0 630 vlineto
            -22 -126 rlineto
            return
          </CharString>
          <CharString index="283">
            8 callsubr
            423 109 callgsubr
            return
          </CharString>
          <CharString index="284">
            hlineto
            -13 -75 rlineto
            return
          </CharString>
          <CharString index="285">
            hlineto
            384 callgsubr
            0 vlineto
            -19 -100 -88 -83 -106 -1 rrcurveto
            -91 353 callgsubr
            17 79 71 107 hhcurveto
            33 hlineto
            9 51 rlineto
            -361 hlineto
            -9 -51 310 callgsubr
            return
          </CharString>
          <CharString index="286">
            271 callgsubr
            -202 rlineto
            -127 -22 60 186 callgsubr
            16 hvcurveto
            return
          </CharString>
          <CharString index="287">
            hhcurveto
            108 73 70 132 24 hvcurveto
            15 85 rlineto
            return
          </CharString>
          <CharString index="288">
            rmoveto
            48 callgsubr
            return
          </CharString>
          <CharString index="289">
            168 callgsubr
            -6 return
          </CharString>
          <CharString index="290">
            hlineto
            -4 -14 -4 -16 -2 -14 return
          </CharString>
          <CharString index="291">
            136 callsubr
            11 return
          </CharString>
          <CharString index="292">
            -37 270 callgsubr
            return
          </CharString>
          <CharString index="293">
            -84 -18 -101 48 -43 65 -10 rlinecurve
            return
          </CharString>
          <CharString index="294">
            363 callsubr
            21 callsubr
            13 49 42 59 hhcurveto
            72 20 291 callgsubr
            -17 -100 rlineto
            return
          </CharString>
          <CharString index="295">
            322 callgsubr
            -37 -210 rlineto
            -104 hlineto
            -107 -89 -61 -108 -19 hvcurveto
            -100 -17 62 -68 103 hhcurveto
            108 74 72 129 23 hvcurveto
            15 84 rlineto
            return
          </CharString>
          <CharString index="296">
            rlineto
            -91 -16 -51 -53 return
          </CharString>
          <CharString index="297">
            92 hlineto
            -268 350 389 349 rlineto
            -89 hlineto
            -362 -328 58 328 rlineto
            -70 hlineto
            164 callsubr
            70 hlineto
            57 323 rlineto
            endchar
          </CharString>
          <CharString index="298">
            147 rmoveto
            15 85 rlineto
            return
          </CharString>
          <CharString index="299">
            rmoveto
            18 98 rlineto
            return
          </CharString>
          <CharString index="300">
            172 rlineto
            -318 -779 rmoveto
            -79 -1 -59 54 16 90 5 29 13 26 19 21 213 -160 rcurveline
            -34 -31 -44 -25 -53 hhcurveto
            43 277 rmoveto
            return
          </CharString>
          <CharString index="301">
            -234 -2 -13 -2 -12 -1 -12 rlinecurve
            -271 -26 callgsubr
            rrcurveto
            return
          </CharString>
          <CharString index="302">
            214 callgsubr
            -566 return
          </CharString>
          <CharString index="303">
            rmoveto
            -87 208 callgsubr
            return
          </CharString>
          <CharString index="304">
            92 hlineto
            17 93 rlineto
            -92 hlineto
            return
          </CharString>
          <CharString index="305">
            192 callsubr
            213 hlineto
            return
          </CharString>
          <CharString index="306">
            84 rmoveto
            -148 -98 58 331 callgsubr
            75 13 64 63 118 hhcurveto
            22 hlineto
            9 53 rlineto
            -23 hlineto
            -104 -33 46 84 15 hvcurveto
            20 112 rlineto
            return
          </CharString>
          <CharString index="307">
            rrcurveto
            -115 -20 97 -62 120 hhcurveto
            120 93 62 100 51 261 callsubr
            319 callsubr
            return
          </CharString>
          <CharString index="308">
            -27 callgsubr
            endchar
          </CharString>
          <CharString index="309">
            -61 hlineto
            -119 -20 -92 -84 -121 hhcurveto
            -118 -74 81 114 21 hvcurveto
            139 25 113 66 127 hhcurveto
            91 hlineto
            32 181 rlineto
            return
          </CharString>
          <CharString index="310">
            294 408 rmoveto
            -64 40 -35 54 12 75 rrcurveto
            62 10 61 56 72 hhcurveto
            81 38 -60 -63 -12 hvcurveto
            -12 -73 -50 -46 -68 -44 -16 -11 rcurveline
            return
          </CharString>
          <CharString index="311">
            82 -114 hhcurveto
            -111 -83 -71 -96 -16 hvcurveto
            -17 -91 43 -71 87 -56 -240 -163 rcurveline
            -1 -8 rlineto
            74 hlineto
            212 144 157 return
          </CharString>
          <CharString index="312">
            rmoveto
            -25 -134 -98 -9 -88 -51 -50 -83 rlinecurve
            -281 277 1 callgsubr
            return
          </CharString>
          <CharString index="313">
            rmoveto
            133 175 rlineto
            -71 hlineto
            -130 -175 68 -175 rlineto
            72 hlineto
            return
          </CharString>
          <CharString index="314">
            70 hlineto
            131 740 rlineto
            -70 hlineto
            return
          </CharString>
          <CharString index="315">
            159 callsubr
            -336 hlineto
            return
          </CharString>
          <CharString index="316">
            hlineto
            -123 -700 rlineto
            return
          </CharString>
          <CharString index="317">
            -99 146 hhcurveto
            128 84 80 81 30 hvcurveto
            -62 hlineto
            -50 -22 -61 -56 -92 hhcurveto
            -108 -44 72 89 16 hvcurveto
            88 16 74 74 104 hhcurveto
            return
          </CharString>
          <CharString index="318">
            hlineto
            -122 -94 return
          </CharString>
          <CharString index="319">
            313 262 rmoveto
            -106 -35 72 115 20 98 callsubr
            302 hlineto
            -46 -259 1 callgsubr
            -90 -15 -65 -75 -97 hhcurveto
            return
          </CharString>
          <CharString index="320">
            328 callgsubr
            -205 hlineto
            return
          </CharString>
          <CharString index="321">
            -42 -1 callgsubr
            return
          </CharString>
          <CharString index="322">
            hhcurveto
            8 9 0 1 8 hvcurveto
            return
          </CharString>
          <CharString index="323">
            -70 85 137 return
          </CharString>
          <CharString index="324">
            rmoveto
            20 113 rlineto
            213 hlineto
            -50 -285 rlineto
            -288 hlineto
            48 33 42 55 15 84 rrcurveto
            437 113 -87 callgsubr
            return
          </CharString>
          <CharString index="325">
            -44 callgsubr
            140 -22 callsubr
            return
          </CharString>
          <CharString index="326">
            177 callsubr
            270 callsubr
            -32 -117 hhcurveto
            return
          </CharString>
          <CharString index="327">
            588 192 callsubr
            return
          </CharString>
          <CharString index="328">
            -117 -21 hvcurveto
            return
          </CharString>
          <CharString index="329">
            rmoveto
            -103 -66 364 callgsubr
            19 346 callgsubr
            -14 -71 -100 -130 hhcurveto
            return
          </CharString>
          <CharString index="330">
            rmoveto
            -76 -51 50 81 12 hvcurveto
            12 75 67 51 70 5 77 6 56 28 34 44 -38 -218 rcurveline
            -61 -19 -60 -61 -84 hhcurveto
            return
          </CharString>
          <CharString index="331">
            32 34 45 -37 -209 rcurveline
            -1 hlineto
            -4 -22 -9 -24 -15 -21 -209 157 rcurveline
            28 21 36 13 41 3 rrcurveto
            endchar
          </CharString>
          <CharString index="332">
            108 hhcurveto
            150 131 111 171 30 hvcurveto
            171 30 return
          </CharString>
          <CharString index="333">
            hlineto
            -32 -180 rlineto
            -336 6 callgsubr
            return
          </CharString>
          <CharString index="334">
            hlineto
            -167 -132 return
          </CharString>
          <CharString index="335">
            9 52 rlineto
            -22 hlineto
            return
          </CharString>
          <CharString index="336">
            82 20 115 return
          </CharString>
          <CharString index="337">
            -102 callsubr
            403 hlineto
            -19 -107 rlineto
            -112 -19 -75 -58 -115 hhcurveto
            -108 hlineto
            -34 -203 rlineto
            -126 -22 return
          </CharString>
          <CharString index="338">
            123 22 -94 46 -103 hhcurveto
            -45 hlineto
            -62 -53 24 69 12 hvcurveto
            77 14 76 16 62 hhcurveto
            168 hlineto
            32 180 rlineto
            return
          </CharString>
          <CharString index="339">
            195 193 rmoveto
            -67 -41 121 callgsubr
            71 13 59 45 74 hhcurveto
            103 hlineto
            -15 -87 rlineto
            -91 -17 -50 -53 -72 hhcurveto
            return
          </CharString>
          <CharString index="340">
            -3 hvcurveto
            -17 -3 10 -13 18 hhcurveto
            18 15 13 17 4 hvcurveto
            endchar
          </CharString>
          <CharString index="341">
            255 callsubr
            -156 hlineto
            return
          </CharString>
          <CharString index="342">
            267 callgsubr
            71 return
          </CharString>
          <CharString index="343">
            79 rmoveto
            -62 callsubr
            return
          </CharString>
          <CharString index="344">
            rmoveto
            109 20 -55 128 -171 hhcurveto
            -142 -116 -89 -138 -24 hvcurveto
            -145 -26 90 -94 144 hhcurveto
            return
          </CharString>
          <CharString index="345">
            -80 31 73 -48 108 hhcurveto
            108 78 52 63 43 330 callsubr
          </CharString>
          <CharString index="346">
            -72 102 716 rmoveto
            -10 -59 rlineto
            400 hlineto
            -404 -657 rlineto
            77 hlineto
            396 662 -13 callgsubr
            endchar
          </CharString>
          <CharString index="347">
            rmoveto
            57 hlineto
            62 352 rlineto
            -110 hlineto
            -9 -45 rlineto
            54 hlineto
            return
          </CharString>
          <CharString index="348">
            227 callsubr
            -74 -173 -30 hvcurveto
            -163 -28 98 -87 return
          </CharString>
          <CharString index="349">
            163 callsubr
            -75 -14 return
          </CharString>
          <CharString index="350">
            342 callsubr
            106 93 71 110 20 hvcurveto
            return
          </CharString>
          <CharString index="351">
            hlineto
            -25 78 callsubr
            return
          </CharString>
          <CharString index="352">
            73 48 65 42 hvcurveto
            -38 -217 rlineto
            return
          </CharString>
          <CharString index="353">
            -76 78 137 25 hvcurveto
            -1 return
          </CharString>
          <CharString index="354">
            -1 rlinecurve
            118 -1 return
          </CharString>
          <CharString index="355">
            hlineto
            -70 -398 rlineto
            return
          </CharString>
          <CharString index="356">
            279 callgsubr
            222 116 callsubr
            140 hlineto
            10 54 rlineto
            return
          </CharString>
          <CharString index="357">
            rmoveto
            -66 hlineto
            -85 -16 -67 -53 -91 hhcurveto
            -90 -50 55 89 15 hvcurveto
            137 25 110 22 115 hhcurveto
            25 hlineto
            return
          </CharString>
          <CharString index="358">
            rmoveto
            66 hlineto
            85 16 67 53 91 hhcurveto
            90 50 -55 -89 -15 hvcurveto
            -137 -25 -110 -22 -115 hhcurveto
            -25 hlineto
            return
          </CharString>
          <CharString index="359">
            -47 -271 rlineto
            return
          </CharString>
          <CharString index="360">
            -63 callsubr
            140 -22 callsubr
            -204 hlineto
            -66 -372 rlineto
            -128 -22 -112 -82 -117 hhcurveto
            return
          </CharString>
          <CharString index="361">
            hhcurveto
            93 60 -52 -70 15 hvcurveto
            -435 -357 -1 -4 rlineto
            return
          </CharString>
          <CharString index="362">
            hlineto
            -32 -187 rlineto
            return
          </CharString>
          <CharString index="363">
            30 hmoveto
            70 hlineto
            return
          </CharString>
          <CharString index="364">
            64 callgsubr
            499 512 104 callgsubr
            return
          </CharString>
          <CharString index="365">
            hvcurveto
            -2 -15 rlineto
            54 hlineto
            3 15 rlineto
            120 16 67 80 98 hhcurveto
            92 33 -76 -93 -17 hvcurveto
            -4 -22 return
          </CharString>
          <CharString index="366">
            rmoveto
            -66 -42 369 callgsubr
            12 60 44 75 51 callsubr
            -92 -17 -51 -52 -70 hhcurveto
            return
          </CharString>
          <CharString index="367">
            341 rmoveto
            389 hlineto
            10 59 rlineto
            -389 hlineto
            endchar
          </CharString>
          <CharString index="368">
            hvcurveto
            -91 26 77 352 callsubr
            return
          </CharString>
          <CharString index="369">
            82 hhcurveto
            80 48 return
          </CharString>
          <CharString index="370">
            hhcurveto
            -123 -93 -88 177 callgsubr
            -139 -24 60 -103 154 hhcurveto
            10 11 1 1 13 hvcurveto
            return
          </CharString>
          <CharString index="371">
            287 146 rmoveto
            -106 -80 68 120 21 hvcurveto
            9 50 22 41 29 32 245 -262 rcurveline
            return
          </CharString>
          <CharString index="372">
            258 147 callgsubr
            return
          </CharString>
          <CharString index="373">
            300 callgsubr
            -73 -78 return
          </CharString>
          <CharString index="374">
            -58 -79 hhcurveto
            -84 -47 54 78 return
          </CharString>
          <CharString index="375">
            hlineto
            -15 -88 rlineto
            return
          </CharString>
          <CharString index="376">
            -28 -162 rlineto
            return
          </CharString>
          <CharString index="377">
            -112 -20 -79 return
          </CharString>
          <CharString index="378">
            -5 -2 266 callgsubr
            25 27 5 8 23 hvcurveto
            return
          </CharString>
          <CharString index="379">
            -313 80 hmoveto
            70 hlineto
            126 707 rlineto
            -170 hlineto
            -12 -64 rlineto
            99 hlineto
            endchar
          </CharString>
          <CharString index="380">
            -82 -118 -22 hvcurveto
            -1 -13 174 callgsubr
            13 return
          </CharString>
          <CharString index="381">
            rmoveto
            96 callsubr
            return
          </CharString>
          <CharString index="382">
            224 185 rmoveto
            -67 -41 46 69 12 hvcurveto
            62 return
          </CharString>
          <CharString index="383">
            hlineto
            48 callgsubr
            return
          </CharString>
          <CharString index="384">
            -91 128 hhcurveto
            125 return
          </CharString>
          <CharString index="385">
            170 callgsubr
            -56 return
          </CharString>
          <CharString index="386">
            -3 -6 -19 hvcurveto
            return
          </CharString>
          <CharString index="387">
            hlineto
            10 56 rlineto
            return
          </CharString>
          <CharString index="388">
            -53 -71 hhcurveto
            198 191 callsubr
            174 149 callgsubr
            return
          </CharString>
          <CharString index="389">
            295 callsubr
            endchar
          </CharString>
          <CharString index="390">
            hhcurveto
            110 80 52 331 callsubr
            -234 137 callsubr
            return
          </CharString>
          <CharString index="391">
            -44 -76 -12 hvcurveto
            -1 -8 -1 -11 -8 vvcurveto
            46 hlineto
            -1 5 1 8 1 6 rrcurveto
            return
          </CharString>
          <CharString index="392">
            161 callsubr
            endchar
          </CharString>
          <CharString index="393">
            121 97 callgsubr
            return
          </CharString>
          <CharString index="394">
            -126 -216 rlineto
            81 hlineto
            96 216 rlineto
            return
          </CharString>
          <CharString index="395">
            126 217 rlineto
            -81 hlineto
            -96 -217 rlineto
            return
          </CharString>
          <CharString index="396">
            209 callgsubr
            -23 return
          </CharString>
          <CharString index="397">
            1 callgsubr
            23 return
          </CharString>
          <CharString index="398">
            115 20 hvcurveto
            return
          </CharString>
          <CharString index="399">
            55 callgsubr
            -22 -20 279 callsubr
            return
          </CharString>
          <CharString index="400">
            hlineto
            -18 -97 -22 -121 -71 -41 -102 -5 rlinecurve
            80 -13 -64 68 -117 hhcurveto
            return
          </CharString>
          <CharString index="401">
            -61 hlineto
            -88 -13 -52 -68 -85 hhcurveto
            -90 -35 89 callgsubr
            160 rlineto
            return
          </CharString>
          <CharString index="402">
            241 callsubr
            151 hhcurveto
            return
          </CharString>
          <CharString index="403">
            90 73 63 33 hvcurveto
            -43 -239 rlineto
            endchar
          </CharString>
          <CharString index="404">
            -35 rlineto
            56 39 29 78 14 hvcurveto
            return
          </CharString>
          <CharString index="405">
            -141 -25 81 -90 126 hhcurveto
            return
          </CharString>
          <CharString index="406">
            427 192 callsubr
            return
          </CharString>
          <CharString index="407">
            262 rmoveto
            -107 return
          </CharString>
          <CharString index="408">
            rlineto
            81 14 53 46 68 hhcurveto
            65 30 -44 -54 -8 hvcurveto
            50 hlineto
            83 19 return
          </CharString>
          <CharString index="409">
            hhcurveto
            -6 -38 rlineto
            61 42 34 80 14 hvcurveto
            4 22 1 25 -1 28 rrcurveto
            return
          </CharString>
          <CharString index="410">
            46 67 hhcurveto
            58 29 -44 -61 -12 hvcurveto
            57 hlineto
            94 19 -46 65 -97 hhcurveto
            return
          </CharString>
          <CharString index="411">
            hhcurveto
            26 173 callgsubr
            -132 return
          </CharString>
          <CharString index="412" raw="1">
            1ff7d20a 0b  
          </CharString>
          <CharString index="413">
            56 102 18 hvcurveto
            93 16 80 71 107 hhcurveto
            return
          </CharString>
          <CharString index="414">
            -28 hvcurveto
            -2 hlineto
            71 return
          </CharString>
          <CharString index="415">
            -52 rmoveto
            -12 -69 rlineto
            return
          </CharString>
          <CharString index="416">
            -41 -232 rlineto
            return
          </CharString>
          <CharString index="417">
            rlineto
            -143 hlineto
            return
          </CharString>
          <CharString index="418">
            rlineto
            69 13 41 40 54 hhcurveto
            52 26 -34 -53 -11 hvcurveto
            53 hlineto
            83 return
          </CharString>
          <CharString index="419">
            hhcurveto
            446 303 rmoveto
            -96 -67 -51 -63 -38 hvcurveto
            41 235 rlineto
            return
          </CharString>
          <CharString index="420">
            -590 rmoveto
            43 244 rlineto
            -73 hlineto
            -207 -248 -6 -35 rlineto
            return
          </CharString>
          <CharString index="421">
            352 callgsubr
            endchar
          </CharString>
          <CharString index="422">
            -101 -18 61 -69 105 hhcurveto
            108 74 354 callgsubr
            return
          </CharString>
          <CharString index="423">
            -112 -137 -21 hvcurveto
            -4 -29 rlineto
            return
          </CharString>
          <CharString index="424">
            -141 -25 78 -87 123 hhcurveto
            7 return
          </CharString>
          <CharString index="425" raw="1">
            fb22f71a 1d0b  
          </CharString>
          <CharString index="426">
            80 53 331 callsubr
            -235 rlineto
            return
          </CharString>
          <CharString index="427">
            rcurveline
            72 340 callsubr
            return
          </CharString>
          <CharString index="428">
            hlineto
            -88 -97 -33 -105 -18 hvcurveto
            return
          </CharString>
          <CharString index="429">
            60 350 rmoveto
            -210 -37 return
          </CharString>
          <CharString index="430">
            66 170 callgsubr
            return
          </CharString>
          <CharString index="431">
            -14 -76 rlineto
            46 hlineto
            -4 return
          </CharString>
          <CharString index="432">
            1 4 vhcurveto
            128 return
          </CharString>
          <CharString index="433">
            hlineto
            -60 -342 rlineto
            return
          </CharString>
          <CharString index="434">
            32 77 339 rmoveto
            509 376 callsubr
            -509 hlineto
            return
          </CharString>
          <CharString index="435">
            372 callgsubr
            101 hhcurveto
            127 38 -96 -86 -16 hvcurveto
            return
          </CharString>
          <CharString index="436">
            339 callsubr
            -29 -167 rlineto
            -82 -15 return
          </CharString>
          <CharString index="437">
            -58 callsubr
            endchar
          </CharString>
          <CharString index="438">
            63 44 hvcurveto
            -41 return
          </CharString>
          <CharString index="439">
            358 callgsubr
            -18 70 return
          </CharString>
          <CharString index="440">
            227 callgsubr
            -103 hlineto
            -50 -45 -14 -25 -37 hvcurveto
            return
          </CharString>
          <CharString index="441">
            rmoveto
            15 85 rlineto
            141 hlineto
            -1 -4 rlineto
            -171 -31 return
          </CharString>
          <CharString index="442">
            -66 -1 callsubr
            94 68 100 hhcurveto
            return
          </CharString>
          <CharString index="443">
            rmoveto
            -112 -37 84 94 19 hvcurveto
            2 1 2 2 vvcurveto
            return
          </CharString>
          <CharString index="444">
            -349 rlineto
            74 hlineto
            335 285 -38 -215 rlineto
            return
          </CharString>
          <CharString index="445">
            rrcurveto
            435 98 -87 callgsubr
            return
          </CharString>
          <CharString index="446">
            216 callgsubr
            -272 hlineto
            return
          </CharString>
          <CharString index="447">
            hlineto
            174 154 return
          </CharString>
          <CharString index="448">
            hlineto
            -19 -111 rlineto
            return
          </CharString>
          <CharString index="449">
            -80 116 hhcurveto
            return
          </CharString>
          <CharString index="450">
            hvcurveto
            -165 -29 return
          </CharString>
          <CharString index="451">
            39 29 78 14 hvcurveto
            3 19 2 24 -2 24 rrcurveto
            return
          </CharString>
          <CharString index="452">
            hlineto
            286 callsubr
            return
          </CharString>
          <CharString index="453">
            hvcurveto
            -152 30 rmoveto
            20 4 -12 16 -22 hhcurveto
            -21 return
          </CharString>
          <CharString index="454">
            hlineto
            -46 -44 -27 -65 -2 -77 rrcurveto
            63 hlineto
            109 return
          </CharString>
          <CharString index="455">
            -55 callgsubr
            15 85 rlineto
            return
          </CharString>
          <CharString index="456">
            642 -40 callgsubr
            return
          </CharString>
          <CharString index="457" raw="1">
            e41df734 05f87406 2a0b 
          </CharString>
          <CharString index="458">
            rmoveto
            49 hlineto
            149 262 rlineto
            -78 hlineto
            endchar
          </CharString>
          <CharString index="459">
            -55 374 callsubr
            return
          </CharString>
          <CharString index="460">
            115 20 112 rcurveline
            return
          </CharString>
          <CharString index="461">
            127 -80 181 hhcurveto
            return
          </CharString>
          <CharString index="462">
            hlineto
            10 55 rlineto
            return
          </CharString>
          <CharString index="463">
            83 -115 hhcurveto
            return
          </CharString>
          <CharString index="464">
            hlineto
            85 217 rlineto
            -67 hlineto
            -85 -217 rlineto
            return
          </CharString>
          <CharString index="465">
            rmoveto
            84 callgsubr
            182 return
          </CharString>
          <CharString index="466">
            -46 -79 -52 hvcurveto
            -197 119 callgsubr
            return
          </CharString>
          <CharString index="467">
            -100 -128 hhcurveto
            -105 -67 68 115 19 hvcurveto
            return
          </CharString>
          <CharString index="468">
            -198 119 callgsubr
            return
          </CharString>
          <CharString index="469">
            71 -3 185 callsubr
            return
          </CharString>
          <CharString index="470">
            hlineto
            -24 -28 -17 -36 -7 -42 return
          </CharString>
          <CharString index="471">
            325 callsubr
            3 88 return
          </CharString>
          <CharString index="472">
            rlineto
            141 hlineto
            118 37 return
          </CharString>
          <CharString index="473">
            55 82 hhcurveto
            79 48 -56 -78 return
          </CharString>
          <CharString index="474">
            62 57 10 hvcurveto
            -53 hlineto
            -86 return
          </CharString>
          <CharString index="475">
            hlineto
            -89 -73 -36 -81 -14 hvcurveto
            return
          </CharString>
          <CharString index="476">
            -83 -38 -110 hhcurveto
            return
          </CharString>
          <CharString index="477">
            rlineto
            -22 hlineto
            -132 return
          </CharString>
          <CharString index="478">
            163 hhcurveto
            110 return
          </CharString>
          <CharString index="479">
            3 1 4 1 5 return
          </CharString>
          <CharString index="480">
            127 hhcurveto
            108 return
          </CharString>
          <CharString index="481">
            115 hhcurveto
            109 return
          </CharString>
          <CharString index="482">
            hvcurveto
            -29 -164 return
          </CharString>
          <CharString index="483">
            hlineto
            11 62 rlineto
            return
          </CharString>
          <CharString index="484">
            -55 -69 -12 hvcurveto
            -123 -22 -115 -27 return
          </CharString>
          <CharString index="485">
            -55 -69 -13 hvcurveto
            -123 -21 -115 -27 return
          </CharString>
          <CharString index="486">
            hhcurveto
            7 hlineto
            9 51 rlineto
            -7 hlineto
            -95 -43 return
          </CharString>
          <CharString index="487">
            -16 rlineto
            63 hlineto
            3 17 rlineto
            176 31 return
          </CharString>
          <CharString index="488">
            hhcurveto
            79 49 -56 -92 -16 hvcurveto
            -109 -19 return
          </CharString>
          <CharString index="489">
            -51 -289 rlineto
            return
          </CharString>
          <CharString index="490">
            hvcurveto
            -11 -57 rlineto
            return
          </CharString>
          <CharString index="491">
            -69 115 hhcurveto
            return
          </CharString>
        <CharString name=".notdef">
          -105 0 vmoveto
          500 700 -500 hlineto
          250 -305 rmoveto
          -170 255 rlineto
          340 hlineto
          -140 -300 rmoveto
          170 255 rlineto
          -510 vlineto
          -370 -45 rmoveto
          170 255 170 -255 rlineto
          -370 555 rmoveto
          170 -255 -170 -255 rlineto
          endchar
        </CharString>
        <CharString name="A">
          -18 callgsubr
          -11 56 111 callgsubr
        </CharString>
        <CharString name="AE">
          277 522 640 112 callgsubr
        </CharString>
        <CharString name="Aacute">
          -18 callgsubr
          -163 620 -40 callgsubr
          -76 -692 111 callgsubr
        </CharString>
        <CharString name="Abreve">
          -18 callgsubr
          102 712 -79 callgsubr
          -113 -656 111 callgsubr
        </CharString>
        <CharString name="Acircumflex">
          -18 callgsubr
          88 642 -27 callsubr
          -89 -529 111 callgsubr
        </CharString>
        <CharString name="Adieresis">
          -18 callgsubr
          -129 601 -89 callgsubr
          -36 -545 111 callgsubr
        </CharString>
        <CharString name="Agrave">
          -18 callgsubr
          -151 685 16 callsubr
          129 -692 111 callgsubr
        </CharString>
        <CharString name="Amacron">
          -18 callgsubr
          -219 624 78 callgsubr
          198 -622 111 callgsubr
        </CharString>
        <CharString name="Aogonek">
          47 359 690 rmoveto
          -377 -690 rlineto
          74 hlineto
          90 166 rlineto
          319 hlineto
          28 -149 -80 -33 -36 -48 -8 -45 rlinecurve
          -67 -11 51 -25 57 hhcurveto
          25 26 5 8 24 hvcurveto
          9 49 rlineto
          -9 -24 -24 -5 -20 hhcurveto
          -36 -22 18 33 6 hvcurveto
          5 26 19 24 52 23 64 29 rcurveline
          -132 690 rlineto
          16 -468 111 callgsubr
        </CharString>
        <CharString name="Aring">
          -18 callgsubr
          23 688 rmoveto
          -37 -6 -31 -24 -34 hhcurveto
          -34 -22 24 37 7 hvcurveto
          38 7 29 23 34 hhcurveto
          34 23 -23 -38 -7 hvcurveto
          -161 hmoveto
          -62 -11 39 -38 55 hhcurveto
          55 52 38 62 11 hvcurveto
          62 11 -38 38 -55 hhcurveto
          -55 -52 -38 -62 -12 hvcurveto
          127 -632 111 callgsubr
        </CharString>
        <CharString name="Atilde">
          -18 callgsubr
          -188 584 -88 callsubr
          177 -528 111 callgsubr
        </CharString>
        <CharString name="B">
          -8 462 194 rmoveto
          -86 -15 -69 -51 -101 hhcurveto
          -167 hlineto
          48 275 rlineto
          164 hlineto
          101 55 -54 -84 -16 hvcurveto
          40 322 rmoveto
          -78 -14 -61 -49 -95 hhcurveto
          -163 hlineto
          44 254 rlineto
          160 hlineto
          101 41 -51 -76 -13 hvcurveto
          29 -329 rmoveto
          15 88 -49 72 -76 14 71 19 66 51 16 92 rrcurveto
          98 18 -56 78 -147 hhcurveto
          -236 hlineto
          164 callsubr
          242 hlineto
          147 94 82 105 18 hvcurveto
          endchar
        </CharString>
        <CharString name="C">
          -41 callgsubr
          endchar
        </CharString>
        <CharString name="CR">
          -310 endchar
        </CharString>
        <CharString name="Cacute">
          -41 callgsubr
          313 436 -40 callgsubr
          endchar
        </CharString>
        <CharString name="Ccaron">
          -41 callgsubr
          430 455 -16 callsubr
        </CharString>
        <CharString name="Ccedilla">
          166 60 350 rmoveto
          -36 -205 115 -144 186 -7 -19 -106 rcurveline
          10 callsubr
          12 62 rcurveline
          140 11 115 76 69 122 rrcurveto
          -83 hlineto
          -89 -54 -93 -58 -119 hhcurveto
          -153 -97 113 180 32 hvcurveto
          181 32 137 113 153 hhcurveto
          119 72 -58 -91 23 hvcurveto
          82 hlineto
          134 -27 -102 78 -156 hhcurveto
          -194 -174 -147 -210 -37 hvcurveto
          endchar
        </CharString>
        <CharString name="Cdotaccent">
          -41 callgsubr
          422 407 -44 callsubr
        </CharString>
        <CharString name="D">
          108 callsubr
          endchar
        </CharString>
        <CharString name="Dcaron">
          108 callsubr
          193 750 -16 callsubr
        </CharString>
        <CharString name="Dcroat">
          63 callsubr
        </CharString>
        <CharString name="E">
          -71 callgsubr
          endchar
        </CharString>
        <CharString name="Eacute">
          -71 callgsubr
          -284 142 -40 callgsubr
          endchar
        </CharString>
        <CharString name="Ebreve">
          -71 callgsubr
          -19 234 -79 callgsubr
          endchar
        </CharString>
        <CharString name="Ecaron">
          -71 callgsubr
          -167 161 -16 callsubr
        </CharString>
        <CharString name="Ecircumflex">
          -71 callgsubr
          -33 164 -27 callsubr
          endchar
        </CharString>
        <CharString name="Edieresis">
          -71 callgsubr
          -250 123 -89 callgsubr
          endchar
        </CharString>
        <CharString name="Edotaccent">
          -71 callgsubr
          -175 113 -44 callsubr
        </CharString>
        <CharString name="Egrave">
          -71 callgsubr
          -272 207 16 callsubr
          endchar
        </CharString>
        <CharString name="Emacron">
          -71 callgsubr
          -340 146 78 callgsubr
          endchar
        </CharString>
        <CharString name="Eogonek">
          -102 519 700 rmoveto
          -366 209 callsubr
          263 hlineto
          -64 -33 -28 -37 -7 -39 rrcurveto
          247 callgsubr
          25 27 5 8 23 hvcurveto
          12 callsubr
          64 29 rcurveline
          10 56 rlineto
          -295 hlineto
          47 268 rlineto
          266 hlineto
          9 56 rlineto
          -265 hlineto
          46 264 rlineto
          295 hlineto
          endchar
        </CharString>
        <CharString name="Eth">
          63 callsubr
        </CharString>
        <CharString name="Euro">
          213 124 350 rmoveto
          -4 -21 -2 -20 -20 vvcurveto
          -94 hlineto
          -9 -50 rlineto
          104 hlineto
          -149 16 110 -96 158 hhcurveto
          156 129 78 132 74 hvcurveto
          -82 hlineto
          -89 -55 -92 -58 -119 hhcurveto
          -118 -85 68 114 -18 hvcurveto
          255 hlineto
          8 50 rlineto
          -266 hlineto
          20 2 20 4 21 vhcurveto
          3 18 4 17 6 17 rrcurveto
          268 hlineto
          8 50 rlineto
          -257 hlineto
          120 57 111 72 122 hhcurveto
          119 71 -58 -91 24 hvcurveto
          82 hlineto
          134 -27 -102 78 -156 hhcurveto
          -161 -147 -101 -154 -66 hvcurveto
          -102 hlineto
          -9 -50 rlineto
          92 hlineto
          -5 -17 -4 -17 -3 -18 rrcurveto
          endchar
        </CharString>
        <CharString name="F">
          -112 256 callsubr
          57 324 rlineto
          260 355 callsubr
          -260 hlineto
          46 264 rlineto
          309 280 callsubr
          -379 hlineto
          endchar
        </CharString>
        <CharString name="G">
          177 60 350 -49 callgsubr
          endchar
        </CharString>
        <CharString name="Gbreve">
          177 60 350 -49 callgsubr
          578 528 -79 callgsubr
          endchar
        </CharString>
        <CharString name="Gdotaccent">
          177 60 350 -49 callgsubr
          422 407 -44 callsubr
        </CharString>
        <CharString name="H">
          74 479 hmoveto
          70 hlineto
          124 699 rlineto
          -70 hlineto
          -56 -315 rlineto
          -379 hlineto
          55 315 rlineto
          -70 hlineto
          164 callsubr
          70 hlineto
          58 329 rlineto
          379 hlineto
          endchar
        </CharString>
        <CharString name="I">
          82 callsubr
          endchar
        </CharString>
        <CharString name="Iacute">
          82 callsubr
          -63 87 -40 callgsubr
          endchar
        </CharString>
        <CharString name="Icircumflex">
          82 callsubr
          188 109 -27 callsubr
          endchar
        </CharString>
        <CharString name="Idieresis">
          82 callsubr
          -29 68 -89 callgsubr
          endchar
        </CharString>
        <CharString name="Idotaccent">
          82 callsubr
          46 58 -44 callsubr
        </CharString>
        <CharString name="Igrave">
          82 callsubr
          -51 152 16 callsubr
          endchar
        </CharString>
        <CharString name="Imacron">
          82 callsubr
          -119 91 78 callgsubr
          endchar
        </CharString>
        <CharString name="Iogonek">
          -376 70 -187 rmoveto
          12 callsubr
          62 28 rcurveline
          2 hlineto
          123 699 rlineto
          -70 hlineto
          -120 -682 271 callsubr
          endchar
        </CharString>
        <CharString name="Itilde">
          82 callsubr
          -87 51 -88 callsubr
          endchar
        </CharString>
        <CharString name="J">
          -106 314 170 rmoveto
          -58 -11 -39 -57 -81 hhcurveto
          -83 -21 59 70 12 hvcurveto
          -71 hlineto
          -118 -21 60 -73 113 hhcurveto
          110 83 71 106 19 hvcurveto
          93 529 rlineto
          -70 hlineto
          endchar
        </CharString>
        <CharString name="K">
          -37 403 hmoveto
          190 callsubr
        </CharString>
        <CharString name="L">
          -184 153 699 rmoveto
          110 callgsubr
          endchar
        </CharString>
        <CharString name="Lacute">
          -184 153 699 rmoveto
          110 callgsubr
          -35 87 -40 callgsubr
          endchar
        </CharString>
        <CharString name="Lcaron">
          -174 340 699 rmoveto
          -13 -76 rlineto
          46 hlineto
          -5 -24 rlineto
          -34 -5 -17 -18 -33 hhcurveto
          -7 -36 rlineto
          58 38 30 73 13 hvcurveto
          5 24 2 28 -1 33 rrcurveto
          -268 hmoveto
          110 callgsubr
          endchar
        </CharString>
        <CharString name="Ldot">
          -184 153 699 rmoveto
          110 callgsubr
          74 58 -44 callsubr
        </CharString>
        <CharString name="Lslash">
          -175 169 699 rmoveto
          -56 -313 -91 -34 -12 -66 92 34 -57 -320 rlineto
          321 hlineto
          11 55 rlineto
          -251 hlineto
          51 292 133 49 12 66 -133 -49 50 286 rlineto
          endchar
        </CharString>
        <CharString name="M">
          237 256 callsubr
          96 549 150 -549 rlineto
          51 hlineto
          342 550 -97 -550 rlineto
          70 hlineto
          122 690 rlineto
          -74 hlineto
          -371 -598 -163 598 rlineto
          -74 hlineto
          endchar
        </CharString>
        <CharString name="N">
          81 610 699 34 callgsubr
          endchar
        </CharString>
        <CharString name="NULL">
          -605 endchar
        </CharString>
        <CharString name="Nacute">
          81 610 699 34 callgsubr
          -361 87 -40 callgsubr
          endchar
        </CharString>
        <CharString name="Ncaron">
          81 610 699 34 callgsubr
          -244 106 -16 callsubr
        </CharString>
        <CharString name="Ntilde">
          81 610 699 34 callgsubr
          -385 51 -88 callsubr
          endchar
        </CharString>
        <CharString name="O">
          -93 callsubr
          endchar
        </CharString>
        <CharString name="OE">
          488 1099 643 rmoveto
          10 56 rlineto
          -365 hlineto
          -30 -169 rlineto
          110 -27 -94 67 -128 hhcurveto
          -190 -177 -147 -210 -37 hvcurveto
          -210 -37 124 -147 192 hhcurveto
          127 118 66 112 66 hvcurveto
          -31 -171 rlineto
          365 hlineto
          11 56 rlineto
          -296 hlineto
          47 268 rlineto
          265 355 callsubr
          -265 hlineto
          46 264 rlineto
          -344 hmoveto
          155 100 -112 -181 -33 hvcurveto
          -181 -31 -139 -113 -156 hhcurveto
          -155 -98 113 181 31 hvcurveto
          181 33 138 112 155 hhcurveto
          endchar
        </CharString>
        <CharString name="Oacute">
          -93 callsubr
          244 505 -40 callgsubr
          endchar
        </CharString>
        <CharString name="Ocircumflex">
          -93 callsubr
          495 527 -27 callsubr
          endchar
        </CharString>
        <CharString name="Odieresis">
          -93 callsubr
          278 486 -89 callgsubr
          endchar
        </CharString>
        <CharString name="Ograve">
          -93 callsubr
          256 570 16 callsubr
          endchar
        </CharString>
        <CharString name="Ohungarumlaut">
          -93 callsubr
          487 603 99 callsubr
        </CharString>
        <CharString name="Omacron">
          -93 callsubr
          188 509 78 callgsubr
          endchar
        </CharString>
        <CharString name="Oslash">
          183 755 419 rmoveto
          69 -18 60 -33 47 vhcurveto
          115 105 rlineto
          -59 hlineto
          -82 -75 rlineto
          52 -50 -73 30 -88 hhcurveto
          -235 -176 -190 -237 -68 18 -60 34 -47 hvcurveto
          -116 -105 rlineto
          60 hlineto
          81 74 rlineto
          -51 51 73 -30 88 hhcurveto
          235 175 189 237 hvcurveto
          -626 -134 rmoveto
          191 134 167 193 71 59 -23 -43 40 vhcurveto
          -464 -422 rlineto
          -21 35 -12 44 51 vvcurveto
          226 -229 rmoveto
          -71 -59 24 42 -39 hvcurveto
          464 424 rlineto
          21 -36 12 -44 -51 vvcurveto
          -193 -136 -166 -192 vhcurveto
          endchar
        </CharString>
        <CharString name="Otilde">
          -93 callsubr
          219 469 -88 callsubr
          endchar
        </CharString>
        <CharString name="P">
          -41 163 356 rmoveto
          50 287 365 callsubr
          -55 -90 -16 hvcurveto
          -86 -15 -56 -56 -118 hhcurveto
          261 142 rmoveto
          115 20 -58 86 -163 hhcurveto
          -211 hlineto
          164 callsubr
          70 hlineto
          52 298 rlineto
          141 hlineto
          165 87 87 113 20 hvcurveto
          endchar
        </CharString>
        <CharString name="Q">
          184 129 285 rmoveto
          191 134 167 193 137 90 -86 -142 -193 -136 -166 -192 -137 -89 87 142 vhcurveto
          626 134 rmoveto
          171 -113 117 -175 -235 -176 -190 -237 -170 114 -117 175 38 36 5 9 34 vhcurveto
          130 -144 rlineto
          94 hlineto
          -154 170 rlineto
          140 67 92 147 172 vvcurveto
          endchar
        </CharString>
        <CharString name="R">
          17 callsubr
          endchar
        </CharString>
        <CharString name="Racute">
          17 callsubr
          -82 87 -40 callgsubr
          endchar
        </CharString>
        <CharString name="Rcaron">
          17 callsubr
          35 106 -16 callsubr
        </CharString>
        <CharString name="S">
          -39 492 176 -49 callsubr
          -109 -12 84 -78 137 hhcurveto
          143 89 81 102 7 hvcurveto
          endchar
        </CharString>
        <CharString name="Sacute">
          -39 492 176 -49 callsubr
          -109 -12 84 -78 137 hhcurveto
          143 89 81 102 7 hvcurveto
          -230 610 -40 callgsubr
          endchar
        </CharString>
        <CharString name="Scaron">
          -39 492 176 -49 callsubr
          -109 -12 84 -78 137 hhcurveto
          143 89 81 102 7 hvcurveto
          -113 629 -16 callsubr
        </CharString>
        <CharString name="T">
          -85 94 643 157 callgsubr
          endchar
        </CharString>
        <CharString name="Tcaron">
          -85 94 643 157 callgsubr
          249 106 -16 callsubr
        </CharString>
        <CharString name="Thorn">
          -41 136 207 rmoveto
          51 287 365 callsubr
          -55 -89 -16 hvcurveto
          -86 -15 -57 -57 -118 hhcurveto
          262 143 rmoveto
          115 20 -58 86 -163 hhcurveto
          -141 hlineto
          26 149 rlineto
          -70 209 callsubr
          70 hlineto
          26 150 rlineto
          141 hlineto
          165 87 86 114 20 hvcurveto
          endchar
        </CharString>
        <CharString name="U">
          -83 callgsubr
          endchar
        </CharString>
        <CharString name="Uacute">
          -83 callgsubr
          155 87 -40 callgsubr
          endchar
        </CharString>
        <CharString name="Ubreve">
          -83 callgsubr
          420 179 -79 callgsubr
          endchar
        </CharString>
        <CharString name="Ucircumflex">
          -83 callgsubr
          406 109 -27 callsubr
          endchar
        </CharString>
        <CharString name="Udieresis">
          -83 callgsubr
          189 68 -89 callgsubr
          endchar
        </CharString>
        <CharString name="Ugrave">
          -83 callgsubr
          167 152 16 callsubr
          endchar
        </CharString>
        <CharString name="Uhungarumlaut">
          -83 callgsubr
          398 185 99 callsubr
        </CharString>
        <CharString name="Umacron">
          -83 callgsubr
          99 91 78 callgsubr
          endchar
        </CharString>
        <CharString name="Uogonek">
          56 73 260 rmoveto
          -30 -166 77 -83 119 -15 -58 -32 -26 -35 -7 -38 rrcurveto
          247 callgsubr
          25 27 5 8 23 hvcurveto
          12 callsubr
          63 29 rcurveline
          113 23 93 82 27 155 78 439 rcurveline
          -70 hlineto
          -78 -439 rlineto
          -145 -26 -85 -59 -108 hhcurveto
          -109 -66 59 145 26 169 callgsubr
          endchar
        </CharString>
        <CharString name="Uring">
          -83 callgsubr
          180 155 14 callsubr
          endchar
        </CharString>
        <CharString name="Utilde">
          -83 callgsubr
          130 51 -88 callsubr
          endchar
        </CharString>
        <CharString name="V">
          54 239 hmoveto
          80 hlineto
          389 699 rlineto
          -76 hlineto
          -339 -620 -119 620 rlineto
          -76 hlineto
          endchar
        </CharString>
        <CharString name="W">
          -5 callgsubr
          endchar
        </CharString>
        <CharString name="Wacute">
          -5 callgsubr
          407 100 -40 callgsubr
          endchar
        </CharString>
        <CharString name="Wcircumflex">
          -5 callgsubr
          576 122 -27 callsubr
          endchar
        </CharString>
        <CharString name="Wdieresis">
          -5 callgsubr
          358 79 -89 callgsubr
          endchar
        </CharString>
        <CharString name="Wgrave">
          -5 callgsubr
          282 162 16 callsubr
          endchar
        </CharString>
        <CharString name="X">
          -20 415 hmoveto
          79 hlineto
          -150 349 275 350 rlineto
          -79 hlineto
          -222 -290 -125 290 rlineto
          -79 hlineto
          150 -348 -273 -351 rlineto
          78 hlineto
          220 292 rlineto
          endchar
        </CharString>
        <CharString name="Y">
          11 callgsubr
          endchar
        </CharString>
        <CharString name="Yacute">
          11 callgsubr
          163 87 -40 callgsubr
          endchar
        </CharString>
        <CharString name="Ycircumflex">
          11 callgsubr
          413 109 -27 callsubr
          endchar
        </CharString>
        <CharString name="Ydieresis">
          11 callgsubr
          196 68 -89 callgsubr
          endchar
        </CharString>
        <CharString name="Ygrave">
          11 callgsubr
          175 152 16 callsubr
          endchar
        </CharString>
        <CharString name="Z">
          54 callgsubr
          endchar
        </CharString>
        <CharString name="Zacute">
          54 callgsubr
          -302 143 -40 callgsubr
          endchar
        </CharString>
        <CharString name="Zcaron">
          54 callgsubr
          -186 162 -16 callsubr
        </CharString>
        <CharString name="Zdotaccent">
          54 callgsubr
          -194 114 -44 callsubr
        </CharString>
        <CharString name="a">
          -96 callgsubr
          endchar
        </CharString>
        <CharString name="a.ss02">
          -12 393 hmoveto
          -97 callgsubr
        </CharString>
        <CharString name="aacute">
          -96 callgsubr
          -234 369 -40 callgsubr
          endchar
        </CharString>
        <CharString name="aacute.ss02">
          -12 289 349 callsubr
          -124 -770 rmoveto
          -97 callgsubr
        </CharString>
        <CharString name="abreve">
          -96 callgsubr
          31 461 -79 callgsubr
          endchar
        </CharString>
        <CharString name="abreve.ss02">
          -12 553 734 -79 callgsubr
          -160 -734 rmoveto
          -97 callgsubr
        </CharString>
        <CharString name="acircumflex">
          -96 callgsubr
          17 391 -27 callsubr
          endchar
        </CharString>
        <CharString name="acircumflex.ss02">
          -12 539 664 -27 callsubr
          -136 -607 rmoveto
          -97 callgsubr
        </CharString>
        <CharString name="acute">
          -352 87 349 callsubr
          endchar
        </CharString>
        <CharString name="adieresis">
          -96 callgsubr
          -200 350 -89 callgsubr
          endchar
        </CharString>
        <CharString name="adieresis.ss02">
          -12 322 623 -89 callgsubr
          -83 -623 rmoveto
          -97 callgsubr
        </CharString>
        <CharString name="ae">
          503 1 callsubr
          endchar
        </CharString>
        <CharString name="agrave">
          -96 callgsubr
          -222 434 16 callsubr
          endchar
        </CharString>
        <CharString name="agrave.ss02">
          -12 300 707 16 callsubr
          82 -770 rmoveto
          -97 callgsubr
        </CharString>
        <CharString name="amacron">
          -96 callgsubr
          -290 373 78 callgsubr
          endchar
        </CharString>
        <CharString name="amacron.ss02">
          -11 232 646 78 callgsubr
          151 -700 rmoveto
          -97 callgsubr
        </CharString>
        <CharString name="ampersand">
          122 532 561 rmoveto
          2 9 1 8 9 vvcurveto
          73 -59 50 -88 -118 -85 -75 -106 -38 15 -35 30 -41 vhcurveto
          -124 -45 -83 -89 -115 vvcurveto
          -108 81 -70 126 97 79 35 74 81 vhcurveto
          78 -97 rlineto
          90 hlineto
          -119 147 23 25 22 28 24 31 rlinecurve
          98 131 rlineto
          -75 hlineto
          -82 -106 -17 -22 -16 -20 -16 -19 rlinecurve
          -189 233 rlineto
          -33 43 -19 33 37 vvcurveto
          63 52 48 70 49 36 -27 -47 -6 0 -5 -1 -6 vhcurveto
          -223 -512 rmoveto
          -88 -56 53 74 93 69 65 102 36 hvcurveto
          183 -226 rlineto
          -65 -68 -64 -30 -78 hhcurveto
          endchar
        </CharString>
        <CharString name="ampersand.ss03">
          58 214 570 rmoveto
          -10 -63 22 -45 34 -51 11 -15 rcurveline
          2 -7 -9 1 -9 hhcurveto
          -101 -100 -75 -125 -22 hvcurveto
          -126 -22 79 -81 111 hhcurveto
          105 94 76 99 26 hvcurveto
          114 -167 rlineto
          84 hlineto
          -299 457 -26 38 -12 29 7 45 rlinecurve
          52 10 45 46 66 hhcurveto
          66 33 -43 -65 -11 hvcurveto
          -2 -10 -3 -13 -6 -10 rrcurveto
          69 hlineto
          6 12 4 14 3 14 rrcurveto
          80 14 -43 80 -120 hhcurveto
          -114 -73 -77 -79 -14 hvcurveto
          -128 -371 rmoveto
          90 16 68 53 74 hhcurveto
          74 60 -64 -85 -15 hvcurveto
          -81 -14 -69 -60 -78 hhcurveto
          -76 -55 57 90 15 hvcurveto
          endchar
        </CharString>
        <CharString name="aogonek">
          83 callsubr
          149 hhcurveto
          109 87 59 70 43 hvcurveto
          -18 -105 271 callsubr
          12 callsubr
          64 29 rcurveline
          122 callsubr
          -21 -120 rlineto
          69 -19 -64 59 -110 -94 callsubr
          endchar
        </CharString>
        <CharString name="aogonek.ss02">
          -12 359 -201 rmoveto
          25 27 5 8 23 hvcurveto
          12 callsubr
          64 29 rcurveline
          -1 2 56 317 rlineto
          4 21 2 20 17 vvcurveto
          117 -76 63 -111 -136 -88 -83 -113 -37 vhcurveto
          69 hlineto
          88 29 66 50 84 hhcurveto
          85 43 -46 -85 -15 -2 -15 -2 -17 hvcurveto
          -181 hlineto
          -139 -105 -74 -116 -88 62 -53 95 103 86 53 68 42 hvcurveto
          -16 -96 -4 -1 266 callgsubr
          -263 345 rmoveto
          70 60 55 103 vhcurveto
          181 hlineto
          -4 -22 rlineto
          -126 -22 -108 -70 -99 hhcurveto
          -68 -43 35 58 hvcurveto
          endchar
        </CharString>
        <CharString name="apostrophemod.ss01">
          -455 117 772 rmoveto
          107 callgsubr
          3 29 -1 33 rrcurveto
          endchar
        </CharString>
        <CharString name="approxequal">
          -118 33 221 rmoveto
          106 callsubr
          200 vmoveto
          106 callsubr
          endchar
        </CharString>
        <CharString name="aring">
          -96 callgsubr
          -209 437 14 callsubr
          endchar
        </CharString>
        <CharString name="aring.ss02">
          -12 313 710 14 callsubr
          -81 -710 rmoveto
          -97 callgsubr
        </CharString>
        <CharString name="asciicircum">
          1 477 171 rmoveto
          72 hlineto
          -142 519 rlineto
          -63 hlineto
          -326 -519 rlineto
          72 hlineto
          271 431 rlineto
          endchar
        </CharString>
        <CharString name="asciitilde">
          -118 33 257 rmoveto
          106 callsubr
          endchar
        </CharString>
        <CharString name="asterisk">
          -136 345 732 rmoveto
          -58 hlineto
          -17 -157 -115 87 -37 -51 129 -64 -153 -64 21 -53 144 87 -38 -157 rlineto
          58 hlineto
          15 157 115 -86 36 51 -130 65 153 64 -20 50 -143 -86 rlineto
          endchar
        </CharString>
        <CharString name="at">
          392 713 -6 rmoveto
          133 74 157 152 197 -139 136 -221 -285 -207 -220 -280 -203 142 -128 212 66 66 12 24 58 hvcurveto
          -10 49 rlineto
          -23 -51 -58 -11 -56 hhcurveto
          -192 -119 103 184 1 hvcurveto
          246 180 196 245 193 117 -108 -178 -113 -48 -143 -90 -52 -13 41 59 10 vhcurveto
          51 291 rlineto
          -62 hlineto
          -13 -72 rlineto
          55 -20 -46 29 -67 hhcurveto
          -145 -98 -134 -147 -104 59 -67 102 72 68 37 63 42 hvcurveto
          -60 2 32 -40 67 hhcurveto
          -87 244 rmoveto
          -112 -11 -75 -77 -89 hhcurveto
          -76 -40 50 76 108 67 108 109 88 37 -69 -84 -10 hvcurveto
          endchar
        </CharString>
        <CharString name="atilde">
          -96 callgsubr
          -259 333 -88 callsubr
          endchar
        </CharString>
        <CharString name="atilde.ss02">
          -12 263 606 -88 callsubr
          130 -606 rmoveto
          -97 callgsubr
        </CharString>
        <CharString name="b">
          70 175 425 rmoveto
          55 315 rlineto
          -69 hlineto
          -131 -740 rlineto
          69 hlineto
          280 callgsubr
          -71 21 65 -57 225 callsubr
          -91 109 -151 hhcurveto
          -106 -86 -57 -72 -46 hvcurveto
          379 -151 112 callsubr
        </CharString>
        <CharString name="backslash">
          -117 233 940 rmoveto
          -70 hlineto
          109 -1106 rlineto
          69 hlineto
          endchar
        </CharString>
        <CharString name="bar">
          -344 186 790 rmoveto
          -158 -890 rlineto
          70 hlineto
          158 890 rlineto
          endchar
        </CharString>
        <CharString name="braceleft">
          -192 186 262 rmoveto
          -65 -76 -196 -78 vvcurveto
          -75 47 -35 76 vhcurveto
          50 hlineto
          11 61 rlineto
          -38 hlineto
          -48 -28 19 41 hvcurveto
          64 75 200 75 vvcurveto
          54 -26 28 -62 17 vhcurveto
          1 2 81 16 41 54 12 73 rlinecurve
          15 81 -4 103 14 82 rrcurveto
          64 11 37 25 57 hhcurveto
          38 hlineto
          10 61 rlineto
          -50 hlineto
          -87 -66 -47 -98 -17 hvcurveto
          -16 -88 5 -101 -14 -80 -10 -56 -32 -43 -85 -18 -9 -57 rcurveline
          64 -15 23 -24 -44 vvcurveto
          endchar
        </CharString>
        <CharString name="braceright">
          -192 349 402 rmoveto
          -81 19 -12 49 9 49 14 80 40 101 16 88 rrcurveto
          98 17 -50 47 -88 hhcurveto
          -50 hlineto
          -10 -61 rlineto
          38 hlineto
          57 28 -25 -64 -12 hvcurveto
          -14 -82 -40 -103 -15 -81 -12 -70 23 -55 76 -18 rrcurveto
          -2 vlineto
          -82 -18 -43 -55 -12 -70 -15 -80 4 -104 -14 -82 rrcurveto
          -64 -11 -37 -25 -57 hhcurveto
          -38 hlineto
          -11 -61 rlineto
          50 hlineto
          87 67 47 98 17 hvcurveto
          16 88 -5 102 14 79 9 49 30 49 88 20 rrcurveto
          endchar
        </CharString>
        <CharString name="bracketleft">
          -238 37 -180 rmoveto
          155 hlineto
          10 59 rlineto
          -88 hlineto
          176 1002 rlineto
          89 hlineto
          10 58 rlineto
          -155 hlineto
          endchar
        </CharString>
        <CharString name="bracketright">
          -238 210 934 rmoveto
          -10 -58 rlineto
          88 hlineto
          -177 -1003 rlineto
          -88 hlineto
          -10 -59 rlineto
          154 hlineto
          197 1120 rlineto
          endchar
        </CharString>
        <CharString name="breve">
          -286 374 734 -79 callgsubr
          endchar
        </CharString>
        <CharString name="brokenbar">
          -344 94 270 rmoveto
          -66 -370 rlineto
          70 hlineto
          66 370 rlineto
          26 150 rmoveto
          66 370 rlineto
          -70 hlineto
          -66 -370 rlineto
          endchar
        </CharString>
        <CharString name="bullet">
          -239 171 218 rmoveto
          65 60 51 64 11 hvcurveto
          65 12 -42 51 -65 hhcurveto
          -64 -60 -51 -65 -12 hvcurveto
          -64 -11 42 -51 64 hhcurveto
          endchar
        </CharString>
        <CharString name="c">
          -21 callsubr
          endchar
        </CharString>
        <CharString name="cacute">
          -21 callsubr
          212 369 -40 callgsubr
          endchar
        </CharString>
        <CharString name="caron">
          -289 225 661 -16 callsubr
        </CharString>
        <CharString name="ccaron">
          -21 callsubr
          329 388 -16 callsubr
        </CharString>
        <CharString name="ccedilla">
          8 46 273 rmoveto
          -29 -163 81 -105 138 -12 -19 -105 rcurveline
          10 callsubr
          11 60 rcurveline
          126 8 94 74 41 103 rrcurveto
          -75 hlineto
          -80 -33 -73 -47 -93 hhcurveto
          -107 -73 74 148 26 hvcurveto
          148 26 100 73 107 hhcurveto
          92 57 -48 -78 4 hvcurveto
          75 hlineto
          113 -5 -76 73 -137 hhcurveto
          -154 -130 -108 -173 -31 hvcurveto
          endchar
        </CharString>
        <CharString name="cdotaccent">
          -21 callsubr
          321 340 -44 callsubr
        </CharString>
        <CharString name="cedilla">
          -340 65 7 rmoveto
          -50 hlineto
          -21 -119 rlineto
          10 callsubr
          rrcurveto
          endchar
        </CharString>
        <CharString name="cent">
          37 532 192 rmoveto
          -66 hlineto
          -76 -30 -67 -48 -91 hhcurveto
          -103 -71 66 130 23 hvcurveto
          130 23 94 67 103 hhcurveto
          91 51 -48 -76 2 hvcurveto
          66 hlineto
          5 100 -67 75 -120 7 17 95 rcurveline
          -44 hlineto
          -17 -96 -143 -11 -103 -101 -25 -142 rlinecurve
          -25 -141 66 -101 141 -11 -18 -101 rcurveline
          44 hlineto
          18 101 122 6 93 75 31 100 rlinecurve
          endchar
        </CharString>
        <CharString name="circumflex">
          -289 359 664 -27 callsubr
          endchar
        </CharString>
        <CharString name="colon">
          -420 101 250 callgsubr
          435 vmoveto
          252 callgsubr
        </CharString>
        <CharString name="colon.ss01">
          -404 2 338 callgsubr
          59 342 rmoveto
          92 hlineto
          17 94 rlineto
          -92 hlineto
          endchar
        </CharString>
        <CharString name="comma">
          -432 -84 -146 351 callsubr
        </CharString>
        <CharString name="comma.ss01">
          -438 -2 347 callgsubr
          -19 -21 -34 302 callsubr
          endchar
        </CharString>
        <CharString name="copyright">
          191 472 703 rmoveto
          -205 -166 -146 -207 -37 hvcurveto
          -207 -36 115 -147 205 hhcurveto
          205 165 147 207 37 hvcurveto
          207 37 -115 146 -205 hhcurveto
          -5 -32 rmoveto
          190 95 -132 -189 -33 hvcurveto
          -189 -33 -143 -132 -189 hhcurveto
          -191 -96 132 189 33 hvcurveto
          189 34 142 132 191 hhcurveto
          -16 -87 rmoveto
          98 71 -54 -97 8 hvcurveto
          -65 hlineto
          65 -8 -49 33 -64 hhcurveto
          -83 -81 -61 -120 -21 hvcurveto
          -120 -21 59 -61 83 hhcurveto
          67 57 34 64 32 hvcurveto
          65 hlineto
          -93 -42 -91 -57 -98 hhcurveto
          -117 -83 85 149 26 hvcurveto
          147 26 113 86 118 hhcurveto
          endchar
        </CharString>
        <CharString name="currency">
          -79 391 377 rmoveto
          -85 -14 -64 -46 -58 hhcurveto
          -61 -41 46 85 15 hvcurveto
          84 15 58 48 61 hhcurveto
          59 45 -48 -84 -15 hvcurveto
          17 -201 rmoveto
          38 33 -49 60 26 28 19 37 7 43 rlinecurve
          8 43 -6 37 -16 29 71 61 rcurveline
          -27 33 -71 -61 rlineto
          21 -25 -34 12 -39 hhcurveto
          -39 -38 -12 -21 -31 hvcurveto
          -50 61 -40 -33 51 -61 -26 -28 -18 -38 -8 -43 rlinecurve
          -8 -43 5 -37 15 -29 -70 -59 rcurveline
          28 -33 69 59 rlineto
          -21 24 34 -12 40 hhcurveto
          39 38 12 21 33 hvcurveto
          endchar
        </CharString>
        <CharString name="d">
          83 callsubr
          150 hhcurveto
          108 86 58 72 45 hvcurveto
          -22 -122 rlineto
          207 callsubr
          -55 -312 rlineto
          72 -23 -72 54 -98 23 callsubr
        </CharString>
        <CharString name="dagger">
          -94 329 539 rmoveto
          329 callgsubr
          189 7 -140 -754 rlineto
          69 hlineto
          126 754 187 -7 10 57 rlineto
          endchar
        </CharString>
        <CharString name="daggerdbl">
          -93 518 546 rmoveto
          -189 -7 329 callgsubr
          190 7 -84 -471 -186 7 -11 -57 190 7 -50 -240 rlineto
          69 hlineto
          36 240 187 -7 10 57 -190 -7 84 471 186 -7 rlineto
          endchar
        </CharString>
        <CharString name="danda">
          -339 224 741 rmoveto
          274 callgsubr
          endchar
        </CharString>
        <CharString name="dcaron">
          125 729 740 rmoveto
          -13 -76 rlineto
          46 hlineto
          -5 -25 rlineto
          -33 -6 -16 -18 -34 hhcurveto
          -6 -36 rlineto
          58 39 29 74 12 hvcurveto
          4 24 2 28 33 vvcurveto
          -764 -466 103 callsubr
          150 hhcurveto
          108 86 58 72 45 hvcurveto
          -22 -122 rlineto
          207 callsubr
          -55 -312 rlineto
          72 -23 -72 54 -98 23 callsubr
        </CharString>
        <CharString name="dcroat">
          66 124 callgsubr
          150 hhcurveto
          108 86 58 72 45 hvcurveto
          -22 -122 rlineto
          70 hlineto
          109 618 rlineto
          63 hlineto
          8 44 rlineto
          -63 hlineto
          14 78 rlineto
          -70 hlineto
          -14 -78 rlineto
          -140 hlineto
          -8 -44 rlineto
          140 hlineto
          -33 -190 rlineto
          72 -23 -72 54 -98 23 callsubr
        </CharString>
        <CharString name="degree">
          -211 71 522 rmoveto
          -105 -18 55 -70 99 hhcurveto
          99 83 70 105 18 hvcurveto
          106 19 -58 69 -98 hhcurveto
          -98 -82 -69 -106 -19 hvcurveto
          278 hmoveto
          -85 -14 -58 -46 -62 hhcurveto
          -63 -38 46 85 15 hvcurveto
          85 14 56 47 63 hhcurveto
          63 39 -47 -85 -15 hvcurveto
          endchar
        </CharString>
        <CharString name="dieresis">
          -290 141 623 -89 callgsubr
          endchar
        </CharString>
        <CharString name="divide">
          327 callsubr
          256 -244 rmoveto
          -51 callgsubr
          70 429 rmoveto
          252 callgsubr
        </CharString>
        <CharString name="divide.ss01">
          327 callsubr
          158 -290 rmoveto
          92 hlineto
          16 94 rlineto
          -92 hlineto
          59 332 rmoveto
          92 hlineto
          16 93 rlineto
          -92 hlineto
          endchar
        </CharString>
        <CharString name="dollar">
          -8 200 -87 rmoveto
          44 hlineto
          14 80 139 7 83 94 15 90 rlinecurve
          25 138 -99 30 -95 27 47 267 rcurveline
          71 -12 28 -53 -1 -44 rrcurveto
          74 hlineto
          5 89 -55 69 -111 11 15 85 rcurveline
          -44 hlineto
          -15 -84 -128 -5 -92 -76 -18 -105 rlinecurve
          -24 -137 100 -29 95 -27 -48 -276 rcurveline
          -84 11 -27 62 3 53 rrcurveto
          -74 hlineto
          -14 -100 68 -74 117 -10 rrcurveto
          210 187 rmoveto
          -12 -68 -56 -57 -88 -5 47 265 rcurveline
          69 -22 55 -30 -15 -83 rrcurveto
          -250 343 rmoveto
          13 81 64 41 79 3 -46 -258 rcurveline
          -69 22 -56 28 15 83 rrcurveto
          endchar
        </CharString>
        <CharString name="dotaccent">
          -458 134 623 -44 callsubr
        </CharString>
        <CharString name="dotlessi">
          95 callsubr
          endchar
        </CharString>
        <CharString name="dottedcircle">
          46 557 409 -9 callgsubr
          -376 -286 -9 callgsubr
          98 -76 -9 callgsubr
          -143 189 -9 callgsubr
          267 -203 -9 callgsubr
          -252 324 -9 callgsubr
          367 -278 -9 callgsubr
          -291 377 -9 callgsubr
          364 -281 -9 callgsubr
          -247 323 -9 callgsubr
          257 -203 -9 callgsubr
          -136 188 -9 callgsubr
          endchar
        </CharString>
        <CharString name="doubledanda">
          -145 224 741 rmoveto
          274 callgsubr
          131 hmoveto
          274 callgsubr
          endchar
        </CharString>
        <CharString name="dvA">
          218 259 441 rmoveto
          -65 callsubr
          215 callgsubr
          141 hlineto
          8 54 rlineto
          -203 -58 callgsubr
          endchar
        </CharString>
        <CharString name="dvAA">
          505 259 441 rmoveto
          -65 callsubr
          63 hlineto
          249 callsubr
          -490 -58 callgsubr
          endchar
        </CharString>
        <CharString name="dvAI">
          46 292 19 rmoveto
          41 callgsubr
          119 -28 callgsubr
          -123 hlineto
          221 -92 -47 317 callgsubr
          38 hlineto
          100 34 -12 -171 79 hvcurveto
          -526 195 callgsubr
          endchar
        </CharString>
        <CharString name="dvAU">
          213 callgsubr
          -80 hlineto
          281 -95 210 callgsubr
          106 29 -5 -97 100 hvcurveto
          -352 -58 callgsubr
          -38 hlineto
          -65 callsubr
          endchar
        </CharString>
        <CharString name="dvAbbreviationsign">
          -107 278 512 rmoveto
          -98 -79 -66 -94 -16 hvcurveto
          -93 -17 60 -67 97 hhcurveto
          96 76 66 93 16 hvcurveto
          95 17 -57 66 -95 hhcurveto
          -6 -42 rmoveto
          70 40 -50 -69 -12 hvcurveto
          -69 -13 -57 -48 -70 hhcurveto
          -72 -42 49 69 11 hvcurveto
          69 12 61 49 72 hhcurveto
          endchar
        </CharString>
        <CharString name="dvAcandra">
          218 259 441 rmoveto
          -65 callsubr
          215 callgsubr
          141 hlineto
          8 54 rlineto
          -203 -58 callgsubr
          767 570 76 callgsubr
          endchar
        </CharString>
        <CharString name="dvAnusvara">
          -605 -6 888 rmoveto
          26 4 -15 20 -28 hhcurveto
          -26 -24 -20 -26 -4 hvcurveto
          -27 -4 17 -20 26 hhcurveto
          26 24 20 27 4 hvcurveto
          endchar
        </CharString>
        <CharString name="dvAnusvara.amI">
          -605 167 888 rmoveto
          26 4 -16 20 -27 hhcurveto
          -27 -23 -20 -26 -5 hvcurveto
          -27 -4 16 -20 27 hhcurveto
          27 24 20 27 4 hvcurveto
          endchar
        </CharString>
        <CharString name="dvAvagraha">
          -34 281 65 rmoveto
          95 50 54 63 10 hvcurveto
          28 157 -251 89 22 121 rrcurveto
          56 10 53 12 46 hhcurveto
          181 355 callsubr
          -198 hlineto
          -78 -73 -30 -84 -15 hvcurveto
          -29 -162 252 -88 -21 -118 rrcurveto
          -38 -6 -34 -32 -56 hhcurveto
          -240 hlineto
          -10 -55 rlineto
          endchar
        </CharString>
        <CharString name="dvB">
          -176 562 339 rmoveto
          111 19 -58 127 -169 -9 callsubr
          155 106 112 128 21 hvcurveto
          -211 191 70 callsubr
          274 156 104 callgsubr
          -598 -102 callsubr
          259 -540 -66 callgsubr
          endchar
        </CharString>
        <CharString name="dvBA">
          84 513 155 callgsubr
          -747 -102 callsubr
          545 145 callgsubr
          -136 -117 -90 -147 -26 hvcurveto
          -145 -28 callsubr
          endchar
        </CharString>
        <CharString name="dvBH">
          -94 220 166 -39 callsubr
          196 hlineto
          9 53 rlineto
          -196 -69 callgsubr
        </CharString>
        <CharString name="dvBHA">
          174 220 166 -39 callsubr
          174 hlineto
          -70 -398 rlineto
          64 hlineto
          121 686 rlineto
          141 hlineto
          9 54 rlineto
          -205 hlineto
          -51 -289 rlineto
          -174 -69 callgsubr
        </CharString>
        <CharString name="dvBH_LA">
          795 220 166 -39 callsubr
          152 hlineto
          -9 -22 -7 -25 -5 -27 rrcurveto
          -137 -26 65 -108 154 hhcurveto
          11 263 callgsubr
          59 73 98 hhcurveto
          95 32 -82 -118 -22 hvcurveto
          -2 -13 rlineto
          55 hlineto
          1 13 rlineto
          120 22 62 80 97 hhcurveto
          93 33 266 callsubr
          -114 hhcurveto
          -9 -11 1 1 -9 hvcurveto
          -10 -57 rlineto
          -1 11 15 -1 10 hhcurveto
          154 -1 95 103 24 138 21 118 -45 89 -94 18 25 142 rcurveline
          260 -28 callgsubr
          -883 8 callsubr
          559 hlineto
          -24 -139 -100 -10 -56 -74 -27 -68 rlinecurve
          378 callgsubr
          -65 -35 -62 -43 hvcurveto
          -172 -69 callgsubr
        </CharString>
        <CharString name="dvBH_NA">
          689 220 166 -39 callsubr
          164 hlineto
          -13 -23 -10 -26 -5 -29 rrcurveto
          -110 -18 70 243 callsubr
          11 64 -20 48 -32 29 rrcurveto
          217 hlineto
          -80 -452 rlineto
          64 hlineto
          279 callgsubr
          139 -28 callgsubr
          -744 8 callsubr
          540 208 callsubr
          -65 -56 -19 -36 -43 hvcurveto
          -200 117 callsubr
          -74 -67 -102 -16 hvcurveto
          21 callsubr
          11 51 42 59 hhcurveto
          72 20 291 callgsubr
          -17 -100 rlineto
          -102 hlineto
          -108 -88 -62 -108 -20 hvcurveto
          -101 -17 61 -64 callgsubr
          210 4 26 callgsubr
          endchar
        </CharString>
        <CharString name="dvBH_R">
          -103 275 callsubr
          13 59 176 callgsubr
          198 hlineto
          9 53 rlineto
          -198 104 callsubr
          -155 -403 rmoveto
          332 283 11 64 -417 -347 rlineto
          endchar
        </CharString>
        <CharString name="dvBH_RA">
          195 275 callsubr
          13 59 176 callgsubr
          199 hlineto
          -22 -122 -418 337 callsubr
          59 181 callgsubr
          -202 hlineto
          -50 -286 rlineto
          -199 104 callsubr
          endchar
        </CharString>
        <CharString name="dvBH_R_YA">
          624 275 callsubr
          12 60 176 callgsubr
          142 hlineto
          -1 -7 -10 -54 2 -48 13 -39 rlinecurve
          -387 -323 rlineto
          74 hlineto
          331 283 rlineto
          -60 37 69 -34 94 31 callgsubr
          -172 hlineto
          16 91 rlineto
          124 22 -36 356 callsubr
          -101 -74 -66 -102 -15 hvcurveto
          311 callgsubr
          -14 vvcurveto
          62 hlineto
          15 0 12 2 13 vhcurveto
          72 11 50 42 61 hhcurveto
          73 22 -55 -87 -16 hvcurveto
          -18 -100 rlineto
          -102 hlineto
          -106 -87 -55 -97 -19 hvcurveto
          -99 -20 64 -68 104 hhcurveto
          108 74 71 130 22 hvcurveto
          393 -159 37 callsubr
          endchar
        </CharString>
        <CharString name="dvBH_VA">
          576 786 156 rmoveto
          -103 -67 364 callgsubr
          20 93 195 callsubr
          10 -39 callsubr
          156 287 callgsubr
          85 -91 133 hhcurveto
          98 245 callsubr
          63 276 callsubr
          -648 -102 callsubr
          446 123 callgsubr
          -92 -83 -44 -75 -50 hvcurveto
          -173 -69 callgsubr
        </CharString>
        <CharString name="dvBH_YA">
          624 220 166 -16 callgsubr
          594 8 37 callsubr
          -395 139 334 callsubr
          89 -104 165 31 callgsubr
          -171 -69 callgsubr
        </CharString>
        <CharString name="dvB_BA">
          526 351 530 rmoveto
          126 47 -94 -89 -12 hvcurveto
          -3 -1 -2 -3 vvcurveto
          -1 -3 0 -3 -3 vvcurveto
          -9 -38 -19 -40 -31 -33 40 callsubr
          604 -530 181 callsubr
          -1189 -102 callsubr
          987 145 callgsubr
          -97 -88 -46 -80 -51 hvcurveto
          71 -24 -64 56 -112 -9 callsubr
          106 83 52 74 48 hvcurveto
          -78 27 75 -47 94 hhcurveto
          102 76 53 65 41 hvcurveto
          -39 -218 rlineto
          -608 146 -66 callgsubr
          446 2 49 callgsubr
        </CharString>
        <CharString name="dvB_BHA">
          605 652 166 rmoveto
          162 callsubr
          74 hhcurveto
          101 hlineto
          -16 -88 rlineto
          -91 -16 -50 281 callsubr
          121 686 rlineto
          142 hlineto
          8 236 callgsubr
          -17 hvcurveto
          -667 -102 callsubr
          688 hlineto
          4 13 14 3 14 hhcurveto
          71 21 291 callgsubr
          -18 -100 rlineto
          -102 hlineto
          -57 -52 -18 -32 -39 hvcurveto
          91 -8 -64 85 -138 -9 callsubr
          94 77 42 61 50 hvcurveto
          -56 18 52 -35 74 -55 callgsubr
          -499 217 rmoveto
          131 45 -101 -92 -16 hvcurveto
          -2 -8 -2 -9 -2 -8 rrcurveto
          -1 -1 0 -1 -1 vvcurveto
          -10 -31 -18 -32 -25 -27 40 callsubr
          -66 -384 -66 callgsubr
          endchar
        </CharString>
        <CharString name="dvB_BH_RA">
          627 351 530 rmoveto
          131 45 -101 -92 -16 hvcurveto
          -1 -5 0 -2 -1 -1 -3 -8 -2 -9 -2 -9 -10 -29 -17 -29 -24 -26 40 callsubr
          -66 -384 -66 callgsubr
          371 39 rmoveto
          -66 -42 46 69 13 hvcurveto
          62 13 59 39 72 hhcurveto
          102 hlineto
          -12 332 callgsubr
          13 14 2 15 hhcurveto
          72 22 -55 -87 -16 hvcurveto
          -17 -97 rlineto
          -103 hlineto
          -58 -52 -17 -32 -39 hvcurveto
          90 -10 -64 82 -136 -9 callsubr
          100 79 46 67 50 hvcurveto
          -50 20 51 -30 70 303 callgsubr
          -417 337 callsubr
          179 callgsubr
          -668 -102 callsubr
          endchar
        </CharString>
        <CharString name="dvB_DA">
          447 351 530 70 callsubr
          -66 -384 -66 callgsubr
          850 540 -87 callgsubr
          -1109 -102 callsubr
          895 124 callsubr
          -106 -100 -37 -83 -57 hvcurveto
          71 -24 -63 58 -114 -9 callsubr
          106 82 52 74 49 hvcurveto
          -74 24 66 -43 87 -76 callsubr
          endchar
        </CharString>
        <CharString name="dvB_DHA">
          524 264 callsubr
          -29 -36 -47 -20 -57 hhcurveto
          927 540 108 callgsubr
          -22 -21 279 callsubr
          -639 -102 callsubr
          564 133 callsubr
          -56 -7 -64 -38 -24 -74 rrcurveto
          0 vlineto
          -11 -30 -17 -29 153 callsubr
          50 hvcurveto
          -68 20 72 -37 89 243 callgsubr
          215 callgsubr
          endchar
        </CharString>
        <CharString name="dvB_DH_VA">
          958 264 callsubr
          -30 -36 -47 -19 -57 hhcurveto
          1220 540 rmoveto
          -11 callgsubr
          -639 -102 callsubr
          564 133 callsubr
          -56 -7 -63 -37 -25 -74 rrcurveto
          0 vlineto
          -11 -30 -17 -30 153 callsubr
          49 hvcurveto
          -70 21 76 -35 98 hhcurveto
          120 90 50 91 54 hvcurveto
          -89 19 73 -51 100 hhcurveto
          99 73 49 66 42 hvcurveto
          -38 -219 rlineto
          62 hlineto
          -219 156 85 callsubr
          endchar
        </CharString>
        <CharString name="dvB_JA">
          657 286 146 0 callgsubr
        </CharString>
        <CharString name="dvB_JHA">
          692 291 146 rmoveto
          -105 -79 70 119 20 hvcurveto
          9 50 21 41 30 32 246 185 callgsubr
          -47 -20 -59 hhcurveto
          408 174 rmoveto
          -64 -54 24 68 13 hvcurveto
          78 13 78 16 62 hhcurveto
          191 hlineto
          8 47 290 callsubr
          133 rlineto
          213 hlineto
          -64 -366 rlineto
          6 -320 rmoveto
          122 -34 callgsubr
          -1355 -102 callsubr
          877 69 callsubr
          -146 hlineto
          -90 -99 -33 -107 -18 hvcurveto
          -9 -47 -8 -49 -21 -54 -37 -42 rlinecurve
          -244 261 rlineto
          32 42 52 17 53 hhcurveto
          30 26 -5 -8 23 hvcurveto
          7 46 rlineto
          8 -24 -29 5 -30 hhcurveto
          -149 -115 -96 -144 -26 hvcurveto
          -144 -25 95 -94 140 hhcurveto
          144 91 97 121 36 hvcurveto
          27 -29 45 -14 50 -1 rrcurveto
          72 hlineto
          101 46 -46 -74 -14 hvcurveto
          -58 -10 -47 -51 -93 hhcurveto
          -104 -44 60 68 2 hvcurveto
          -55 hlineto
          -44 -247 rlineto
          59 hlineto
          29 164 rlineto
          -25 9 36 -69 120 hhcurveto
          119 67 68 83 14 hvcurveto
          11 62 -19 40 -33 24 211 -1 rcurveline
          252 callsubr
          endchar
        </CharString>
        <CharString name="dvB_J_YA">
          1113 351 530 36 callgsubr
          -32 -35 -244 262 rcurveline
          31 41 50 18 52 hhcurveto
          -65 -384 rmoveto
          -105 -80 70 119 21 hvcurveto
          9 49 22 42 30 32 244 -262 184 callgsubr
          1019 28 rmoveto
          -135 -66 102 138 27 hvcurveto
          1 2 0 3 1 3 125 5 90 54 20 120 55 callsubr
          -118 -19 -103 -79 -116 hhcurveto
          498 512 104 callgsubr
          -1776 -102 callsubr
          1294 177 callsubr
          -108 -19 -81 286 callgsubr
          -82 -15 -57 -57 -77 hhcurveto
          -74 -36 56 81 14 hvcurveto
          1 vlineto
          1 1 2 2 vvcurveto
          111 19 -56 127 -171 hhcurveto
          -144 -119 -94 -144 -26 hvcurveto
          -144 -25 95 -96 142 hhcurveto
          106 83 52 73 49 hvcurveto
          19 -52 46 -32 71 -1 118 -1 79 229 callsubr
          14 80 rcurveline
          150 hlineto
          13 11 0 10 hhcurveto
          -166 -30 82 -130 164 hhcurveto
          110 80 53 63 44 114 callgsubr
        </CharString>
        <CharString name="dvB_JxA">
          657 678 6 rmoveto
          -100 callgsubr
          -392 140 0 callgsubr
        </CharString>
        <CharString name="dvB_LA">
          731 981 79 rmoveto
          153 -1 96 103 23 138 21 118 -45 88 -93 19 24 142 rcurveline
          261 -28 callgsubr
          -1395 -102 callsubr
          1071 hlineto
          -24 116 callgsubr
          -111 hhcurveto
          -78 -63 -36 -65 -42 hvcurveto
          72 -23 -64 58 -114 -9 callsubr
          99 80 46 67 49 hvcurveto
          -80 18 63 -53 106 314 callgsubr
          -116 -43 79 106 19 hvcurveto
          97 16 60 73 97 hhcurveto
          96 31 -82 -118 -22 hvcurveto
          -2 -13 rlineto
          55 hlineto
          2 13 rlineto
          120 21 63 80 97 hhcurveto
          93 32 266 callsubr
          -113 hhcurveto
          -10 -10 1 1 -10 hvcurveto
          -10 90 callsubr
          -696 67 -66 callgsubr
          66 384 70 callsubr
          endchar
        </CharString>
        <CharString name="dvB_L_YA">
          1239 285 146 -66 callgsubr
          1144 28 rmoveto
          -134 -71 85 137 27 hvcurveto
          3 1 4 1 4 vhcurveto
          128 3 88 54 24 102 callsubr
          499 512 rmoveto
          10 54 rlineto
          -1902 -102 callsubr
          1419 hlineto
          -13 -75 -21 -115 -70 -43 -94 -8 rlinecurve
          -13 68 -63 37 -73 -2 -114 -5 -64 -75 -28 -73 rrcurveto
          -2 hlineto
          71 -4 185 callsubr
          -78 -64 -37 -64 -42 hvcurveto
          72 -23 -64 58 -114 -9 callsubr
          101 80 47 69 49 hvcurveto
          -81 19 61 -55 106 hhcurveto
          10 263 callgsubr
          60 73 97 hhcurveto
          95 25 -81 -119 -15 hvcurveto
          -2 -13 rlineto
          55 hlineto
          2 13 15 121 68 75 97 4 rlinecurve
          62 3 50 -35 -2 -52 rrcurveto
          -2 -1 -2 -2 vvcurveto
          -171 -31 84 -111 166 hhcurveto
          111 81 52 63 44 -58 callsubr
          -1436 -156 70 callsubr
          endchar
        </CharString>
        <CharString name="dvB_NA">
          627 567 317 -95 callgsubr
          -216 213 70 callsubr
          -66 -384 -66 callgsubr
          1032 540 104 callgsubr
          -1290 -102 callsubr
          1087 208 callsubr
          -76 -66 -27 -49 -43 hvcurveto
          80 -19 -64 67 -123 -9 callsubr
          105 83 52 73 49 hvcurveto
          -58 23 58 -36 78 -78 callgsubr
        </CharString>
        <CharString name="dvB_R">
          -176 625 164 callgsubr
          -598 -102 callsubr
          536 -347 rmoveto
          111 19 -58 127 -169 -9 callsubr
          16 15 1 2 15 hvcurveto
          -191 -153 rlineto
          67 hlineto
          246 203 61 45 41 68 12 74 rlinecurve
          -211 191 70 callsubr
          -66 -384 -66 callgsubr
          endchar
        </CharString>
        <CharString name="dvB_RA">
          84 441 160 rmoveto
          20 17 15 19 13 19 -38 -215 rcurveline
          62 hlineto
          59 callsubr
          -747 -102 callsubr
          545 hlineto
          -40 -230 rlineto
          65 -20 -60 55 -100 hhcurveto
          -139 -117 -90 -147 -26 hvcurveto
          86 callsubr
        </CharString>
        <CharString name="dvB_SA">
          641 351 530 70 callsubr
          -66 -384 -66 callgsubr
          611 442 10 callgsubr
          -1305 -102 callsubr
          825 -77 callsubr
          -60 hlineto
          88 -12 -64 78 -133 -9 callsubr
          86 70 34 52 50 hvcurveto
          -114 -11 60 -80 120 -91 callgsubr
          -34 89 callgsubr
          160 rlineto
          490 hlineto
          -64 -363 56 callsubr
        </CharString>
        <CharString name="dvB_SHA">
          620 888 208 rmoveto
          172 callgsubr
          -84 hhcurveto
          -96 -33 69 92 18 hvcurveto
          280 callgsubr
          103 hlineto
          138 116 35 callgsubr
          -23 -21 279 callsubr
          -689 -102 callsubr
          705 hlineto
          5 15 18 2 18 hhcurveto
          79 49 -56 -92 -15 hvcurveto
          -109 -20 -99 -53 -108 hhcurveto
          -103 hlineto
          98 -1 -63 96 -147 -9 callsubr
          86 71 34 53 49 hvcurveto
          -118 -11 61 -76 126 hhcurveto
          132 76 91 125 18 hvcurveto
          -537 322 70 callsubr
          -66 -384 -66 callgsubr
          764 -146 rmoveto
          120 43 callgsubr
        </CharString>
        <CharString name="dvB_TA">
          521 351 530 rmoveto
          131 45 -101 -92 -16 hvcurveto
          -2 -8 -2 -9 -2 -9 -2 -3 -1 -4 -1 -3 -11 -29 -16 -28 -23 -25 40 callsubr
          -66 -384 -66 callgsubr
          925 540 -87 callgsubr
          -1184 -102 callsubr
          980 234 callsubr
          -104 -90 -28 -63 -60 hvcurveto
          89 -11 -64 80 -135 -9 callsubr
          85 70 34 51 50 hvcurveto
          -119 7 90 -63 128 304 callsubr
          383 callgsubr
          22 hvcurveto
          133 24 99 62 136 hhcurveto
          152 hlineto
          -78 -444 64 callsubr
        </CharString>
        <CharString name="dvB_VA">
          514 725 39 callgsubr
          -374 374 70 callsubr
          -66 -384 -66 callgsubr
          928 594 rmoveto
          -1177 -102 callsubr
          975 4 callsubr
          -93 -82 -44 -76 -49 hvcurveto
          71 -24 -63 56 -113 -9 callsubr
          106 83 52 74 49 hvcurveto
          -77 24 70 -44 93 -77 callgsubr
        </CharString>
        <CharString name="dvB_YA">
          568 1258 -40 callsubr
          -1232 -102 callsubr
          749 hlineto
          -13 -75 -22 -124 -77 -39 -107 -3 rlinecurve
          73 -23 -64 59 -115 -9 callsubr
          115 88 62 84 47 hvcurveto
          30 -79 74 -46 105 -1 rrcurveto
          112 319 callsubr
          63 hlineto
          121 686 rlineto
          -833 -540 -66 callgsubr
          475 28 91 callsubr
        </CharString>
        <CharString name="dvC">
          -137 430 480 rmoveto
          39 callsubr
          -131 -23 92 -72 120 hhcurveto
          146 117 107 134 20 hvcurveto
          272 callgsubr
          267 206 -87 callgsubr
          -638 -102 callsubr
          endchar
        </CharString>
        <CharString name="dvCA">
          125 814 -40 callsubr
          -788 -102 callsubr
          584 178 callsubr
          -72 -32 -49 -63 -14 -78 rrcurveto
          -127 -22 85 -76 115 hhcurveto
          89 81 46 68 47 hvcurveto
          -38 -218 5 callgsubr
        </CharString>
        <CharString name="dvCH">
          208 897 686 57 callgsubr
          140 25 -72 68 -96 30 callgsubr
          -148 -98 58 331 callgsubr
          75 13 64 63 118 hhcurveto
          22 hlineto
          9 53 rlineto
          -23 hlineto
          -104 -33 46 84 15 hvcurveto
          20 112 rlineto
          endchar
        </CharString>
        <CharString name="dvCHA">
          208 897 686 57 callgsubr
          145 callsubr
          -327 -602 -85 callgsubr
          endchar
        </CharString>
        <CharString name="dvCH_R">
          208 897 -40 callsubr
          -874 27 callgsubr
          -25 -133 109 -78 162 -10 -177 -156 rcurveline
          68 340 callsubr
          119 -154 rlineto
          68 hlineto
          -128 162 176 28 132 112 30 170 rlinecurve
          140 25 -72 68 -96 30 callgsubr
          -148 -98 58 331 callgsubr
          75 13 64 63 118 hhcurveto
          22 hlineto
          9 53 rlineto
          -23 hlineto
          -104 -33 46 84 15 hvcurveto
          20 112 rlineto
          endchar
        </CharString>
        <CharString name="dvCH_RA">
          208 344 84 -85 callgsubr
          553 602 -87 callgsubr
          -874 27 callgsubr
          -25 -133 109 -78 162 -10 -177 -156 rcurveline
          68 340 callsubr
          119 -154 rlineto
          68 hlineto
          -128 162 176 28 132 112 30 170 rlinecurve
          145 callsubr
          endchar
        </CharString>
        <CharString name="dvCH_R_YA">
          -10 callgsubr
          -25 -133 110 -79 164 -9 -177 -156 rcurveline
          68 hlineto
          173 154 119 -154 rlineto
          69 hlineto
          -128 162 138 23 110 74 55 114 rlinecurve
          238 callsubr
        </CharString>
        <CharString name="dvCH_YA">
          -10 callgsubr
          rrcurveto
          -142 -27 354 callsubr
          180 148 80 138 67 hvcurveto
          238 callsubr
        </CharString>
        <CharString name="dvC_CA">
          531 335 158 rmoveto
          -91 -68 306 callsubr
          276 hlineto
          -71 -32 -49 -62 -15 -77 rrcurveto
          -82 -32 -75 -69 -96 hhcurveto
          885 528 -87 callgsubr
          -1194 -102 callsubr
          991 hlineto
          -63 -352 -23 -96 -85 -79 -105 -1 rlinecurve
          -90 353 callgsubr
          17 79 71 106 hhcurveto
          34 hlineto
          9 51 rlineto
          -767 71 callgsubr
          -128 -23 91 -75 114 hhcurveto
          96 80 53 74 48 hvcurveto
          -81 17 71 -46 91 hhcurveto
          90 80 46 69 47 hvcurveto
          -39 -219 5 callgsubr
        </CharString>
        <CharString name="dvC_CHA">
          673 810 84 -85 callgsubr
          553 602 -87 callgsubr
          -1337 -102 callsubr
          596 hlineto
          -21 -114 -18 -101 48 -43 64 -10 rlinecurve
          -3 vlineto
          -72 -10 -67 -43 -27 -74 rrcurveto
          -68 -32 -76 -61 -86 hhcurveto
          -90 -1 -69 56 18 102 rrcurveto
          81 callsubr
          96 -73 116 hhcurveto
          77 69 35 55 50 hvcurveto
          -106 13 115 -59 155 165 callgsubr
        </CharString>
        <CharString name="dvC_CH_VA">
          676 730 -264 rmoveto
          -82 -58 53 94 17 hvcurveto
          16 81 69 62 102 3 rrcurveto
          0 vlineto
          2 2 0 2 hhcurveto
          49 46 6 11 43 309 callgsubr
          -66 -12 -61 -80 -106 hhcurveto
          80 348 -85 callgsubr
          553 602 -87 callgsubr
          -1337 -102 callsubr
          596 hlineto
          -21 -114 -18 -101 48 -43 64 -10 rlinecurve
          -3 vlineto
          -72 -10 -67 -43 -27 -74 rrcurveto
          -68 -32 -76 -61 -86 hhcurveto
          -90 -1 -69 56 18 102 rrcurveto
          81 callsubr
          96 -73 116 hhcurveto
          77 69 35 55 50 hvcurveto
          9 -77 63 -52 92 -23 -67 -26 -53 -57 -14 -81 -20 -115 75 -77 106 -1 84 -1 61 39 37 53 -27 -153 rcurveline
          58 hlineto
          79 444 119 50 85 97 23 132 rlinecurve
          145 callsubr
          endchar
        </CharString>
        <CharString name="dvC_MA">
          643 1085 451 47 callsubr
          -461 -520 -94 callgsubr
          665 520 -87 callgsubr
          -1305 -102 callsubr
          843 149 callsubr
          -99 -86 -55 -96 -25 hvcurveto
          -77 -28 -64 -65 -89 hhcurveto
          -90 -68 56 102 18 hvcurveto
          81 callsubr
          94 -73 115 hhcurveto
          84 67 41 61 44 hvcurveto
          -59 16 54 -36 76 92 callgsubr
        </CharString>
        <CharString name="dvC_NA">
          640 581 317 -95 callgsubr
          750 369 104 callgsubr
          -1304 -102 callsubr
          1101 226 callsubr
          -2 -1 -2 -3 vvcurveto
          -84 -23 -66 -70 -97 hhcurveto
          -90 -1 -69 56 18 102 rrcurveto
          81 callsubr
          97 -73 115 hhcurveto
          93 74 50 72 42 hvcurveto
          -59 22 59 -37 79 -78 callgsubr
        </CharString>
        <CharString name="dvC_R">
          -137 664 -40 callsubr
          -638 -102 callsubr
          404 -206 rmoveto
          39 callsubr
          -131 -23 92 -72 120 hhcurveto
          13 13 1 1 12 hvcurveto
          -187 -152 rlineto
          71 hlineto
          239 199 65 44 45 69 12 79 rlinecurve
          272 callgsubr
          endchar
        </CharString>
        <CharString name="dvC_RA">
          125 814 -40 callsubr
          -788 -102 callsubr
          584 hlineto
          384 callgsubr
          0 vlineto
          -13 -68 -44 -60 -61 -31 rrcurveto
          -1 hlineto
          -4 -3 rlineto
          -14 -28 -30 -8 -32 hhcurveto
          -91 353 callgsubr
          17 79 76 callsubr
          -126 -21 84 -75 116 hhcurveto
          9 8 0 1 9 hvcurveto
          -189 -153 rlineto
          71 hlineto
          238 196 28 19 24 23 19 27 rlinecurve
          -39 -219 56 callsubr
        </CharString>
        <CharString name="dvC_YA">
          611 801 174 rmoveto
          -102 callgsubr
          -1273 -102 callsubr
          790 66 callgsubr
          -1 -5 -1 -4 -5 vvcurveto
          -32 -133 -70 -95 -122 -1 rrcurveto
          -90 -69 56 102 18 hvcurveto
          93 callsubr
          -131 -23 96 -72 116 hhcurveto
          113 81 64 99 49 hvcurveto
          -92 25 79 -56 115 -67 callsubr
        </CharString>
        <CharString name="dvCandrabindu">
          -605 158 319 callgsubr
          -97 hhcurveto
          -97 -33 367 callsubr
          -15 58 -81 127 hhcurveto
          131 71 81 86 16 292 callgsubr
          -3 12 367 callgsubr
          4 hvcurveto
          endchar
        </CharString>
        <CharString name="dvD">
          3 534 -290 196 callsubr
          225 976 -87 callgsubr
          -666 -102 callsubr
          452 -52 callgsubr
          endchar
        </CharString>
        <CharString name="dvDA">
          5 693 -40 callsubr
          -666 -102 callsubr
          452 -52 callgsubr
          endchar
        </CharString>
        <CharString name="dvDA_mvR">
          -23 523 225 rmoveto
          -55 hlineto
          -110 -19 -92 -54 -101 hhcurveto
          -94 -59 43 75 14 hvcurveto
          72 14 70 34 69 hhcurveto
          62 hlineto
          9 49 rlineto
          -59 hlineto
          -82 -50 36 60 11 hvcurveto
          69 12 67 25 73 hhcurveto
          178 hlineto
          29 162 rlineto
          148 -22 callsubr
          -642 8 callsubr
          433 hlineto
          -20 -115 rlineto
          -142 hlineto
          -95 -86 -35 -98 -18 hvcurveto
          -14 -79 62 -43 55 -6 rrcurveto
          -3 vlineto
          -49 -4 -83 -35 -18 -94 rrcurveto
          -103 -19 87 -59 125 hhcurveto
          139 115 71 142 25 hvcurveto
          endchar
        </CharString>
        <CharString name="dvDD">
          -27 355 -291 196 callsubr
          373 977 rmoveto
          10 54 rlineto
          -635 -48 callsubr
          168 hlineto
          32 180 rlineto
          endchar
        </CharString>
        <CharString name="dvDDA">
          -27 662 686 rmoveto
          10 54 rlineto
          -635 -48 callsubr
          168 hlineto
          32 180 rlineto
          endchar
        </CharString>
        <CharString name="dvDDH">
          31 393 -266 196 callsubr
          393 952 -87 callgsubr
          -695 -61 callsubr
          90 hlineto
          29 170 rlineto
          endchar
        </CharString>
        <CharString name="dvDDHA">
          31 720 -40 callsubr
          -695 -61 callsubr
          90 hlineto
          29 170 rlineto
          endchar
        </CharString>
        <CharString name="dvDDH_DDHA">
          66 755 -40 callsubr
          -729 -102 callsubr
          451 hlineto
          -19 -109 rlineto
          -73 hlineto
          -148 -128 -76 -155 -27 hvcurveto
          -19 -107 48 -74 91 -33 -99 -30 -77 -71 -20 -110 rrcurveto
          -149 -26 104 -85 166 hhcurveto
          151 98 66 96 16 hvcurveto
          79 14 -48 63 -103 hhcurveto
          -90 -70 284 callsubr
          50 7 49 33 62 hhcurveto
          71 31 -42 -56 -10 hvcurveto
          -68 -11 -82 -48 -108 hhcurveto
          -142 -74 70 117 21 hvcurveto
          127 23 117 66 123 hhcurveto
          0 2 vlineto
          143 99 65 96 18 hvcurveto
          80 15 -48 62 -103 hhcurveto
          -91 -70 -44 -76 -12 hvcurveto
          -1 -8 -1 -11 -8 vvcurveto
          45 hlineto
          5 1 8 6 vvcurveto
          50 7 52 33 62 hhcurveto
          69 30 -41 -54 -9 hvcurveto
          -71 -11 -83 -48 -107 hhcurveto
          -141 -75 71 117 21 hvcurveto
          126 23 110 64 122 hhcurveto
          112 hlineto
          26 152 rlineto
          endchar
        </CharString>
        <CharString name="dvDDH_R">
          31 384 -345 146 callgsubr
          402 1031 25 callgsubr
        </CharString>
        <CharString name="dvDDH_RA">
          31 720 686 25 callgsubr
        </CharString>
        <CharString name="dvDDH_VA">
          32 721 -40 callsubr
          -695 -102 callsubr
          444 hlineto
          -20 -109 rlineto
          -65 hlineto
          -148 -128 -76 -155 -27 hvcurveto
          -19 -107 49 -76 86 -31 -75 -21 -63 -59 -16 -88 rrcurveto
          -106 -19 67 -69 105 hhcurveto
          77 59 38 53 35 hvcurveto
          269 callsubr
          54 hlineto
          75 424 58 29 37 47 11 58 rlinecurve
          77 14 -45 62 -95 hhcurveto
          -87 -69 284 callsubr
          51 7 48 32 60 hhcurveto
          60 30 -40 -55 -10 hvcurveto
          -70 -12 -72 -49 -103 hhcurveto
          -141 -74 71 117 21 hvcurveto
          128 23 111 62 121 hhcurveto
          104 hlineto
          27 152 rlineto
          -308 -846 rmoveto
          -76 -53 49 81 16 hvcurveto
          88 17 75 54 128 hhcurveto
          31 29 3 6 26 hvcurveto
          -26 -146 rlineto
          -65 -18 -56 -70 -93 hhcurveto
          endchar
        </CharString>
        <CharString name="dvDDH_YA">
          650 1079 hmoveto
          83 callgsubr
          -1315 -61 callsubr
          316 hlineto
          64 86 -11 -80 -13 hvcurveto
          -73 -13 -67 -18 -81 hhcurveto
          -23 hlineto
          -2 -10 -3 -11 -2 -11 rrcurveto
          -139 -24 64 -87 133 hhcurveto
          95 67 47 71 43 hvcurveto
          -34 -194 rlineto
          -154 126 rmoveto
          -105 -45 70 95 19 hvcurveto
          1 3 0 4 1 4 99 2 77 32 16 91 rrcurveto
          103 17 -89 31 -109 hhcurveto
          -236 hlineto
          21 125 rlineto
          607 326 callsubr
          0 vlineto
          -128 -23 -76 -90 -115 hhcurveto
          endchar
        </CharString>
        <CharString name="dvDDHxA">
          31 720 -40 callsubr
          -695 -61 callsubr
          90 hlineto
          29 170 rlineto
          -226 -806 rmoveto
          -100 callgsubr
          endchar
        </CharString>
        <CharString name="dvDD_DDA">
          -12 677 -40 callsubr
          -651 -102 callsubr
          429 341 callsubr
          -121 hlineto
          -91 -86 -25 -92 -17 hvcurveto
          -93 -16 83 -30 110 hhcurveto
          86 71 -13 -82 -14 hvcurveto
          -58 -10 -53 -36 -87 hhcurveto
          -120 -48 55 66 10 hvcurveto
          -61 hlineto
          -11 -67 38 -50 61 -22 -59 -13 -45 -32 -10 -57 rrcurveto
          -96 -17 80 -24 114 hhcurveto
          90 67 -14 -82 -15 hvcurveto
          -58 -10 -55 -35 -87 hhcurveto
          -111 -55 48 72 11 hvcurveto
          -61 hlineto
          -104 -17 89 -61 139 hhcurveto
          127 76 52 87 15 hvcurveto
          110 21 -83 28 -126 hhcurveto
          -82 -63 10 68 13 hvcurveto
          53 10 54 21 108 hhcurveto
          132 76 53 86 16 hvcurveto
          107 20 -83 31 -126 hhcurveto
          -77 -66 15 64 14 hvcurveto
          58 12 56 15 63 hhcurveto
          172 hlineto
          4 24 rlineto
          1 hlineto
          23 132 rlineto
          endchar
        </CharString>
        <CharString name="dvDD_DDHA">
          -1 682 -40 callsubr
          -622 -102 callsubr
          414 341 callsubr
          -121 hlineto
          -90 -86 -30 -93 -17 hvcurveto
          -94 -16 82 -23 110 hhcurveto
          86 73 -13 -82 -16 hvcurveto
          -58 -9 -54 -36 -87 hhcurveto
          -120 -47 55 66 10 hvcurveto
          -61 hlineto
          -13 -72 45 -53 69 -19 -97 -27 -76 -70 -20 -114 rrcurveto
          -145 -26 106 -79 150 hhcurveto
          139 91 66 95 16 hvcurveto
          81 15 -47 61 -98 hhcurveto
          -84 -65 -44 -75 -14 hvcurveto
          -1 -8 -1 -11 -9 vvcurveto
          46 hlineto
          -1 6 1 8 1 7 rrcurveto
          48 8 44 34 59 hhcurveto
          64 30 -42 -56 -10 hvcurveto
          -69 -12 -76 -47 -98 hhcurveto
          -130 -72 69 108 21 hvcurveto
          22 124 108 64 121 3 128 5 70 49 16 85 rrcurveto
          107 20 -82 31 -125 hhcurveto
          -78 -65 8 64 12 hvcurveto
          63 12 68 17 55 hhcurveto
          169 hlineto
          8 45 1 callgsubr
          19 111 rlineto
          endchar
        </CharString>
        <CharString name="dvDD_R">
          -27 331 -370 rmoveto
          -87 193 rlineto
          -64 hlineto
          86 -193 rlineto
          396 1056 35 callsubr
        </CharString>
        <CharString name="dvDD_RA">
          -27 662 686 35 callsubr
        </CharString>
        <CharString name="dvDD_VA">
          0 365 -282 rmoveto
          74 421 32 23 20 33 7 41 rlinecurve
          18 107 -80 31 -117 2 rrcurveto
          -82 -69 8 66 13 hvcurveto
          67 12 68 13 55 hhcurveto
          169 hlineto
          4 24 290 callsubr
          132 rlineto
          177 -28 callgsubr
          -663 -102 callsubr
          426 341 callsubr
          -121 hlineto
          -91 -86 -29 -90 -16 hvcurveto
          -102 -17 92 -21 97 hhcurveto
          90 71 -14 -83 -14 hvcurveto
          -59 -11 -53 -35 -86 hhcurveto
          -120 -49 54 65 11 hvcurveto
          -62 hlineto
          -12 -70 43 -55 69 -22 -71 -20 -60 -55 -15 -82 rrcurveto
          -104 -18 65 -66 102 hhcurveto
          69 58 27 49 38 hvcurveto
          -26 -145 rlineto
          -119 116 rmoveto
          -75 -52 47 80 15 hvcurveto
          91 16 86 44 99 hhcurveto
          38 33 5 9 29 hvcurveto
          -27 -148 1 callgsubr
          -57 -10 -56 -71 -96 hhcurveto
          endchar
        </CharString>
        <CharString name="dvDD_YA">
          560 990 155 callgsubr
          -1223 -48 callsubr
          325 hlineto
          63 83 -11 -78 -14 hvcurveto
          -65 -12 -66 -18 -80 hhcurveto
          -25 hlineto
          -3 -11 -2 -10 -2 -11 rrcurveto
          -139 -24 65 -87 132 hhcurveto
          96 66 47 71 43 hvcurveto
          -34 -194 rlineto
          -153 126 rmoveto
          -105 -45 70 95 18 hvcurveto
          1 3 0 4 1 4 103 2 73 34 15 81 rrcurveto
          102 18 -87 31 -109 hhcurveto
          -165 hlineto
          24 134 rlineto
          532 326 callsubr
          -1 hlineto
          -128 -22 -77 -90 -114 hhcurveto
          endchar
        </CharString>
        <CharString name="dvDDxA">
          -27 662 686 rmoveto
          10 54 rlineto
          -635 -48 callsubr
          168 hlineto
          32 180 rlineto
          -247 -832 rmoveto
          -100 callgsubr
          endchar
        </CharString>
        <CharString name="dvDH">
          -169 583 332 rmoveto
          -56 hlineto
          -103 -18 -95 -72 -130 -73 callsubr
          173 114 94 135 24 hvcurveto
          endchar
        </CharString>
        <CharString name="dvDHA">
          103 793 686 108 callgsubr
          -101 -75 -66 -94 -16 hvcurveto
          200 callgsubr
          215 callgsubr
          endchar
        </CharString>
        <CharString name="dvDH_MA">
          646 670 166 rmoveto
          -65 -43 369 callgsubr
          -53 callsubr
          -16 -50 -53 -71 hhcurveto
          666 520 104 callgsubr
          -742 8 callsubr
          279 149 callsubr
          -102 -87 -57 -100 -22 hvcurveto
          -85 -36 -86 -52 -112 -73 callsubr
          108 85 40 66 51 hvcurveto
          -60 16 53 -38 78 348 callsubr
          198 hlineto
          -70 -398 137 callsubr
          -105 -235 rmoveto
          361 callsubr
          197 hlineto
          endchar
        </CharString>
        <CharString name="dvDH_NA">
          649 1338 -40 callsubr
          -745 8 callsubr
          541 159 callsubr
          -335 hlineto
          -118 -93 -65 -110 -24 hvcurveto
          0 vlineto
          -105 -21 -100 -69 -128 -73 callsubr
          119 94 50 80 50 hvcurveto
          -63 21 59 -40 82 hhcurveto
          107 94 71 110 19 hvcurveto
          11 64 -19 48 -32 29 rrcurveto
          217 hlineto
          -80 -452 rlineto
          64 -44 callgsubr
          -610 -369 rmoveto
          80 14 68 55 82 hhcurveto
          79 77 callsubr
          endchar
        </CharString>
        <CharString name="dvDH_N_YA">
          1106 1794 -40 callsubr
          -1201 8 callsubr
          718 219 callsubr
          -326 hlineto
          -114 -90 -60 -104 -28 hvcurveto
          -86 -29 -94 -60 -118 -73 callsubr
          108 87 42 69 53 hvcurveto
          -74 14 63 -49 90 hhcurveto
          109 90 71 110 21 hvcurveto
          11 64 -20 49 -32 29 rrcurveto
          189 hlineto
          -172 -27 90 -123 161 hhcurveto
          110 78 51 62 43 hvcurveto
          309 callsubr
          64 -44 callgsubr
          -1075 -408 117 callgsubr
          -76 123 callsubr
          717 -104 rmoveto
          -136 -67 108 135 25 hvcurveto
          132 4 88 55 22 125 15 85 341 callgsubr
          -333 268 callgsubr
          -71 -110 hhcurveto
          endchar
        </CharString>
        <CharString name="dvDH_R">
          -177 583 332 rmoveto
          -56 hlineto
          -103 -18 -95 -72 -130 -73 callsubr
          27 25 2 5 24 hvcurveto
          -214 -172 rlineto
          73 hlineto
          266 221 59 41 38 60 13 72 rlinecurve
          endchar
        </CharString>
        <CharString name="dvDH_RA">
          103 449 168 rmoveto
          0 vlineto
          24 19 21 23 17 26 -42 -236 rcurveline
          215 callgsubr
          139 hlineto
          -32 callgsubr
          12 53 82 callgsubr
          -101 40 callgsubr
          -45 -17 -90 rrcurveto
          265 callgsubr
        </CharString>
        <CharString name="dvDH_VA">
          537 1086 686 rmoveto
          -10 callsubr
          -100 40 callgsubr
          -44 -17 -91 rrcurveto
          -117 -20 90 -58 127 hhcurveto
          120 90 50 91 54 hvcurveto
          -89 19 73 -51 100 hhcurveto
          99 73 49 66 42 hvcurveto
          -38 -219 rlineto
          62 hlineto
          -219 156 85 callsubr
          endchar
        </CharString>
        <CharString name="dvDH_YA">
          581 1271 686 rmoveto
          70 callgsubr
          -100 -75 -66 -94 -16 hvcurveto
          153 callgsubr
          64 hlineto
          120 686 rlineto
          -358 -512 rmoveto
          -134 -69 85 137 25 -81 callsubr
          216 hlineto
          -56 -316 rlineto
          1 vlineto
          -118 -20 -102 -79 -117 hhcurveto
          endchar
        </CharString>
        <CharString name="dvD_BA">
          178 callgsubr
          -25 -55 -57 -13 -78 rrcurveto
          -113 -20 73 -75 104 hhcurveto
          75 66 36 62 39 hvcurveto
          -28 -158 rlineto
          56 hlineto
          100 567 rlineto
          -55 hlineto
          -93 -16 -95 -40 -68 hhcurveto
          -82 -57 62 82 16 hvcurveto
          88 17 80 47 113 hhcurveto
          149 hlineto
          29 193 callsubr
          75 5 61 224 callsubr
        </CharString>
        <CharString name="dvD_BHA">
          746 543 -290 196 callsubr
          216 976 -87 callgsubr
          -666 -102 callsubr
          452 -52 callgsubr
          249 -520 -39 callsubr
          174 hlineto
          -70 -398 rlineto
          64 hlineto
          121 686 rlineto
          141 hlineto
          9 54 rlineto
          -205 hlineto
          -51 -289 rlineto
          -174 -69 callgsubr
        </CharString>
        <CharString name="dvD_B_RA">
          178 callgsubr
          -24 -55 -58 -13 -78 rrcurveto
          -113 -20 73 -75 104 4 4 0 4 hhcurveto
          -158 -125 rlineto
          70 hlineto
          215 175 rlineto
          -1 hlineto
          16 14 14 16 12 18 -28 -158 rcurveline
          56 hlineto
          100 567 rlineto
          -55 hlineto
          -93 -17 -95 -40 -67 hhcurveto
          -82 -57 62 82 16 hvcurveto
          88 17 79 47 114 hhcurveto
          148 hlineto
          30 193 callsubr
          74 5 62 224 callsubr
        </CharString>
        <CharString name="dvD_DA">
          -65 410 -47 rmoveto
          49 276 rlineto
          -55 hlineto
          -104 -18 -77 -57 -97 hhcurveto
          -87 -48 42 77 13 hvcurveto
          58 10 53 48 87 hhcurveto
          92 hlineto
          7 48 rlineto
          -92 hlineto
          -85 -43 42 57 11 hvcurveto
          74 12 75 28 88 hhcurveto
          142 hlineto
          26 144 rlineto
          154 -28 callgsubr
          -610 -102 callsubr
          393 hlineto
          -18 -99 rlineto
          1 -31 -32 0 -30 hhcurveto
          -114 -98 -35 -106 -20 hvcurveto
          -13 -73 52 -47 59 -10 -1 -2 rcurveline
          -70 -10 -59 -53 -12 -73 rrcurveto
          -100 -18 70 -60 108 hhcurveto
          96 65 46 48 32 hvcurveto
          -28 -160 rlineto
          endchar
        </CharString>
        <CharString name="dvD_DHA">
          293 982 -40 callsubr
          -952 -102 callsubr
          737 hlineto
          -21 -118 rlineto
          -82 hlineto
          -147 -130 -70 -159 -29 hvcurveto
          -16 -94 30 -70 58 -37 rrcurveto
          -100 -38 -81 -57 -89 hhcurveto
          -77 -60 40 84 17 hvcurveto
          64 12 54 57 95 379 callsubr
          49 68 13 hvcurveto
          11 64 61 54 100 -6 10 53 rcurveline
          -148 11 -80 -78 -15 -88 -16 -94 59 -46 58 -12 rrcurveto
          -3 vlineto
          -67 -10 -68 -52 -16 -86 rrcurveto
          -115 -21 84 -59 108 hhcurveto
          119 103 72 119 44 hvcurveto
          -7 21 23 -3 25 hhcurveto
          76 68 35 52 37 hvcurveto
          -36 -206 rlineto
          62 hlineto
          56 319 rlineto
          -58 hlineto
          -105 -19 296 callgsubr
          141 hlineto
          30 173 rlineto
          endchar
        </CharString>
        <CharString name="dvD_GA">
          25 721 -40 callsubr
          -689 8 callsubr
          472 hlineto
          -21 375 callgsubr
          -146 -108 -61 -133 -24 hvcurveto
          -16 -96 46 -72 89 -18 -23 -132 rcurveline
          -52 -10 -28 -57 -72 hhcurveto
          -64 -16 54 48 8 hvcurveto
          5 29 rlineto
          -56 hlineto
          -6 -30 rlineto
          -84 -16 46 -68 94 hhcurveto
          105 53 73 87 15 hvcurveto
          23 128 69 3 61 33 35 44 rlinecurve
          -78 -443 rlineto
          59 hlineto
          97 547 rlineto
          -56 hlineto
          -90 -16 -96 -43 -64 hhcurveto
          -91 -48 54 82 14 hvcurveto
          93 16 82 50 113 hhcurveto
          147 hlineto
          30 172 rlineto
          endchar
        </CharString>
        <CharString name="dvD_GHA">
          293 224 -19 rmoveto
          -81 -57 40 85 16 hvcurveto
          63 11 53 57 97 379 callsubr
          46 71 13 hvcurveto
          59 10 53 53 89 hhcurveto
          40 40 -10 -25 41 hvcurveto
          -30 -34 -22 -44 -10 -54 -16 -93 29 -71 59 -37 rrcurveto
          -100 -38 -81 -57 -87 hhcurveto
          758 705 -87 callgsubr
          -955 -102 callsubr
          740 hlineto
          -21 -118 rlineto
          -82 hlineto
          -75 -72 -19 -40 -56 hvcurveto
          32 -46 -56 20 -60 hhcurveto
          -129 -71 -74 -84 -14 hvcurveto
          -16 -92 56 -45 62 -14 -1 -3 rcurveline
          -63 -7 -71 -51 -16 -89 rrcurveto
          -115 -20 83 -60 108 hhcurveto
          121 102 72 119 43 hvcurveto
          -7 21 22 -3 25 hhcurveto
          77 68 34 53 36 hvcurveto
          -36 -206 rlineto
          63 hlineto
          56 319 rlineto
          -59 hlineto
          -105 -18 296 callgsubr
          140 hlineto
          31 173 rlineto
          endchar
        </CharString>
        <CharString name="dvD_G_RA">
          25 715 164 callgsubr
          -688 -102 callsubr
          473 hlineto
          -22 375 callgsubr
          -145 -109 -61 -135 -23 hvcurveto
          -16 -93 45 -72 89 -18 -11 -69 rcurveline
          -52 -9 -29 -55 -74 hhcurveto
          -63 -18 51 50 10 hvcurveto
          6 29 rlineto
          -56 hlineto
          -2 -10 -2 -10 -1 -10 rrcurveto
          -85 -8 30 -66 97 hhcurveto
          105 57 70 90 15 hvcurveto
          11 62 67 3 62 33 36 44 rlinecurve
          -34 -193 -355 -302 rlineto
          68 hlineto
          280 242 -34 -190 rlineto
          57 hlineto
          96 547 rlineto
          -55 hlineto
          -89 -17 -94 -44 -67 hhcurveto
          -90 -49 55 81 15 hvcurveto
          93 17 79 50 114 hhcurveto
          148 hlineto
          32 172 rlineto
          endchar
        </CharString>
        <CharString name="dvD_MA">
          199 127 -6 rmoveto
          62 12 56 39 64 hhcurveto
          85 hlineto
          -13 -71 rlineto
          -79 -15 -46 -47 -62 hhcurveto
          -54 -38 39 57 11 hvcurveto
          285 155 rmoveto
          29 161 rlineto
          -171 hlineto
          -75 -51 33 73 14 hvcurveto
          65 12 62 32 74 hhcurveto
          157 hlineto
          30 173 rlineto
          201 hlineto
          -95 -537 rlineto
          301 537 104 callgsubr
          -862 8 callsubr
          392 hlineto
          -20 -118 rlineto
          -102 hlineto
          -106 -88 -41 -107 -19 hvcurveto
          -108 -20 79 -55 100 hhcurveto
          118 hlineto
          -18 -108 rlineto
          -82 hlineto
          -96 -88 -51 -101 -18 hvcurveto
          -92 -16 63 -60 89 hhcurveto
          95 69 66 117 21 hvcurveto
          12 67 rlineto
          187 hlineto
          -55 -313 rlineto
          63 hlineto
          159 904 rlineto
          endchar
        </CharString>
        <CharString name="dvD_NA">
          765 542 -290 rmoveto
          -88 208 callgsubr
          230 607 -95 callgsubr
          750 369 104 callgsubr
          -1427 -102 callsubr
          452 -52 callgsubr
          708 hlineto
          -32 -180 rlineto
          -336 hlineto
          -122 -94 -69 -117 -21 hvcurveto
          -110 -19 71 -80 116 -78 callgsubr
        </CharString>
        <CharString name="dvD_R">
          5 534 -290 rmoveto
          -87 193 rlineto
          -65 hlineto
          86 -193 rlineto
          225 976 -87 callgsubr
          -666 -102 callsubr
          452 124 callsubr
          -145 -133 -69 -160 -28 hvcurveto
          -47 callsubr
        </CharString>
        <CharString name="dvD_RA">
          5 693 -40 callsubr
          -666 -102 callsubr
          452 124 callsubr
          -145 -133 -69 -160 -28 hvcurveto
          -47 callsubr
        </CharString>
        <CharString name="dvD_VA">
          -5 686 686 rmoveto
          8 54 rlineto
          -658 8 callsubr
          442 hlineto
          -21 375 callgsubr
          -145 -109 -64 -128 -23 hvcurveto
          114 callsubr
          -311 -764 223 callsubr
          endchar
        </CharString>
        <CharString name="dvD_YA">
          92 239 94 rmoveto
          -91 -65 40 75 12 hvcurveto
          73 12 68 32 85 hhcurveto
          64 hlineto
          10 50 rlineto
          -66 hlineto
          -80 -61 27 71 13 hvcurveto
          71 13 75 26 76 hhcurveto
          22 -2 hlineto
          2 2 rlineto
          60 hlineto
          22 127 rlineto
          168 hlineto
          -66 -377 rlineto
          -151 -37 -117 -64 -119 hhcurveto
          543 592 -87 callgsubr
          -734 -102 callsubr
          301 hlineto
          -18 -98 rlineto
          1 -19 -19 0 -20 hhcurveto
          -83 -96 -30 -95 -19 hvcurveto
          -16 -82 65 -37 53 -6 rrcurveto
          -3 vlineto
          -46 -4 -86 -33 -15 -95 rrcurveto
          -104 -17 93 -56 112 hhcurveto
          119 98 48 97 56 hvcurveto
          -33 -189 rlineto
          63 -29 callsubr
          endchar
        </CharString>
        <CharString name="dvE">
          46 735 -40 callsubr
          -710 195 callgsubr
          41 callgsubr
          endchar
        </CharString>
        <CharString name="dvEcandra">
          47 610 1010 rmoveto
          -55 hlineto
          -56 -10 -53 -62 -96 hhcurveto
          -98 -30 62 56 10 hvcurveto
          -55 hlineto
          -84 -15 44 -84 135 hhcurveto
          135 74 84 84 14 hvcurveto
          101 -324 -87 callgsubr
          -710 195 callgsubr
          41 callgsubr
          endchar
        </CharString>
        <CharString name="dvEight">
          31 callsubr
        </CharString>
        <CharString name="dvEyelash">
          -327 323 438 rmoveto
          -5 -19 -21 -6 -35 hhcurveto
          -85 -88 35 108 18 hvcurveto
          -61 hlineto
          -143 -24 113 -48 109 hhcurveto
          42 42 8 11 24 hvcurveto
          30 288 104 callgsubr
          -374 -102 callsubr
          endchar
        </CharString>
        <CharString name="dvEyelash_HA">
          155 677 207 callgsubr
          -809 -102 callsubr
          603 255 callgsubr
          -6 -34 8 -28 14 -20 rrcurveto
          -4 -17 -18 -3 -21 hhcurveto
          -73 -70 35 102 18 hvcurveto
          -60 hlineto
          -135 -23 96 -54 96 hhcurveto
          51 35 12 11 25 hvcurveto
          4 -2 4 -2 4 -2 -77 -35 -54 -69 -15 -84 -79 callsubr
        </CharString>
        <CharString name="dvEyelash_YA">
          306 492 174 rmoveto
          -127 -71 85 137 25 -81 callsubr
          216 hlineto
          -56 -317 rlineto
          1 vlineto
          -118 -20 -102 -78 -122 hhcurveto
          504 512 -87 callgsubr
          -970 -102 callsubr
          487 209 callgsubr
          -24 -80 -38 -112 hhcurveto
          -86 1 -84 35 18 105 rrcurveto
          -60 hlineto
          -23 -135 101 -51 106 -5 rrcurveto
          -167 -27 89 -109 158 hhcurveto
          114 79 53 64 44 hvcurveto
          -42 -236 56 callsubr
        </CharString>
        <CharString name="dvFive">
          80 callgsubr
        </CharString>
        <CharString name="dvFour">
          156 callgsubr
        </CharString>
        <CharString name="dvG">
          -122 546 -40 callsubr
          -520 -101 callsubr
          endchar
        </CharString>
        <CharString name="dvGA">
          122 550 hmoveto
          83 callgsubr
          -785 -101 callsubr
          192 hlineto
          -120 -686 rlineto
          endchar
        </CharString>
        <CharString name="dvGH">
          -164 648 -40 callsubr
          -622 115 callgsubr
          160 125 109 143 26 hvcurveto
          -54 hlineto
          -116 -21 -104 -83 -123 hhcurveto
          133 callgsubr
          endchar
        </CharString>
        <CharString name="dvGHA">
          109 289 131 callsubr
          -772 -102 callsubr
          135 160 callgsubr
        </CharString>
        <CharString name="dvGH_MA">
          618 1061 451 47 callsubr
          -461 -520 -94 callgsubr
          -353 -4 rmoveto
          -98 -69 43 92 17 171 callgsubr
          -35 46 84 15 hvcurveto
          14 82 rlineto
          621 149 callsubr
          -93 -80 -47 -84 -31 hvcurveto
          -2 -5 rlineto
          -82 -33 -69 -71 -104 hhcurveto
          1018 524 -87 callgsubr
          -1281 204 callgsubr
          97 73 46 60 43 hvcurveto
          -64 13 55 -40 80 92 callgsubr
        </CharString>
        <CharString name="dvGH_NA">
          616 557 317 -95 callgsubr
          -268 -155 rmoveto
          -98 -70 43 92 18 171 callgsubr
          -35 46 84 15 hvcurveto
          14 82 rlineto
          879 208 callsubr
          -109 -86 -55 -95 -33 hvcurveto
          -4 -11 rlineto
          -106 -38 -69 -77 -107 hhcurveto
          1018 524 104 callgsubr
          -1280 204 callgsubr
          104 76 55 82 45 hvcurveto
          -70 17 62 -46 88 -78 callgsubr
        </CharString>
        <CharString name="dvGH_R">
          -164 648 -40 callsubr
          -622 115 callgsubr
          19 19 2 3 18 hvcurveto
          -209 -169 rlineto
          72 hlineto
          261 217 68 46 48 71 15 82 rlinecurve
          -54 hlineto
          -116 -21 -104 -83 -123 hhcurveto
          133 callgsubr
          endchar
        </CharString>
        <CharString name="dvGH_RA">
          109 289 162 rmoveto
          -99 -68 43 92 17 hvcurveto
          69 13 59 55 117 hhcurveto
          48 hlineto
          9 53 rlineto
          -45 hlineto
          -110 -34 46 84 14 hvcurveto
          15 82 rlineto
          369 hlineto
          -59 -334 rlineto
          -113 -26 -109 -77 -111 hhcurveto
          509 524 -87 callgsubr
          -772 -102 callsubr
          135 hlineto
          -15 186 callsubr
          -2 vlineto
          -76 -10 -76 -54 -16 -90 rrcurveto
          -120 -21 89 -63 126 hhcurveto
          16 16 1 3 15 hvcurveto
          -208 -168 rlineto
          73 hlineto
          264 218 28 20 24 24 20 28 rlinecurve
          -42 -235 382 callgsubr
        </CharString>
        <CharString name="dvGH_YA">
          591 289 162 rmoveto
          133 callgsubr
          572 4 callgsubr
          -1 -5 -1 -6 -1 -5 rrcurveto
          -130 -23 -103 -93 -123 hhcurveto
          492 12 rmoveto
          -102 callgsubr
          -1253 115 callgsubr
          114 96 60 92 55 hvcurveto
          -89 27 78 -53 113 -67 callsubr
        </CharString>
        <CharString name="dvG_BA">
          514 942 155 callgsubr
          -1176 -101 callsubr
          585 145 callgsubr
          -136 -117 -90 -147 -26 hvcurveto
          206 callgsubr
          -162 148 49 callgsubr
        </CharString>
        <CharString name="dvG_BHA">
          596 642 166 rmoveto
          88 callgsubr
          -16 -88 rlineto
          -91 -15 -51 281 callsubr
          122 -45 callsubr
          -206 342 callgsubr
          -174 hlineto
          16 91 rlineto
          123 22 -33 84 -116 368 callgsubr
          -660 -102 callsubr
          326 hlineto
          -51 -284 rlineto
          -53 -9 -28 -55 -73 hhcurveto
          -68 -14 54 325 callgsubr
          -63 hlineto
          -6 -30 rlineto
          -91 -17 46 -71 102 hhcurveto
          109 54 76 90 16 hvcurveto
          49 282 rlineto
          290 hlineto
          4 13 13 3 14 hhcurveto
          72 20 291 callgsubr
          -18 -100 rlineto
          -102 hlineto
          -107 -89 -62 -108 -19 hvcurveto
          -101 -18 63 -69 101 hhcurveto
          112 72 19 callsubr
          endchar
        </CharString>
        <CharString name="dvG_BH_YA">
          1045 1236 326 callgsubr
          -71 78 137 27 hvcurveto
          372 callsubr
          vhcurveto
          128 3 88 60 24 102 callsubr
          -594 -8 -39 callsubr
          141 hlineto
          -1 -4 rlineto
          -171 -31 88 -104 165 hhcurveto
          110 79 52 63 44 hvcurveto
          -41 -234 rlineto
          64 276 callsubr
          -700 8 callsubr
          216 177 callsubr
          -126 -21 -83 -34 -98 hhcurveto
          -171 292 callsubr
          -654 -101 callsubr
          193 187 callsubr
          -102 hlineto
          -108 -88 -62 -108 -20 hvcurveto
          32 callgsubr
        </CharString>
        <CharString name="dvG_DA">
          433 1122 -40 callsubr
          -1096 -101 callsubr
          493 -52 callgsubr
          endchar
        </CharString>
        <CharString name="dvG_DHA">
          526 955 hmoveto
          279 callgsubr
          139 hlineto
          109 callsubr
          -22 -21 279 callsubr
          -641 -101 callsubr
          177 hlineto
          -23 -26 -16 -33 -6 -38 200 callgsubr
          endchar
        </CharString>
        <CharString name="dvG_DH_VA">
          960 1388 hmoveto
          120 686 rlineto
          -11 callgsubr
          -640 -101 callsubr
          176 133 callsubr
          -62 -8 -71 -44 -17 -91 245 callgsubr
          120 90 50 91 54 hvcurveto
          -89 19 73 -51 100 hhcurveto
          99 73 49 66 42 hvcurveto
          -38 -219 rlineto
          -157 156 85 callsubr
          endchar
        </CharString>
        <CharString name="dvG_DH_YA">
          1004 1195 174 13 callsubr
          -641 -101 callsubr
          177 hlineto
          -23 -26 -16 -33 -6 -38 153 callgsubr
          endchar
        </CharString>
        <CharString name="dvG_GA">
          558 986 hmoveto
          83 callgsubr
          -1221 -101 callsubr
          373 hlineto
          -51 -284 rlineto
          -53 -9 -28 -55 -73 hhcurveto
          -68 -13 54 51 9 hvcurveto
          6 31 rlineto
          -63 hlineto
          -6 -30 rlineto
          -91 -16 45 -71 102 hhcurveto
          109 54 76 90 16 hvcurveto
          49 282 rlineto
          192 hlineto
          -120 -686 rlineto
          endchar
        </CharString>
        <CharString name="dvG_GHA">
          527 708 131 callsubr
          -1191 -101 callsubr
          165 160 callgsubr
        </CharString>
        <CharString name="dvG_JA">
          653 1341 -40 callsubr
          -1315 -101 callsubr
          723 28 callgsubr
          endchar
        </CharString>
        <CharString name="dvG_LA">
          726 976 236 callsubr
          -1390 -101 callsubr
          678 hlineto
          -25 -139 -99 -10 -56 -74 -27 -68 rlinecurve
          -2 hlineto
          71 -3 -37 82 -110 hhcurveto
          -123 -91 -85 -139 -24 hvcurveto
          -137 -25 65 -108 154 -74 callsubr
          endchar
        </CharString>
        <CharString name="dvG_MA">
          610 1053 451 47 callsubr
          -461 -520 -94 callgsubr
          665 520 -87 callgsubr
          -1273 -101 callsubr
          422 155 callsubr
        </CharString>
        <CharString name="dvG_NA">
          613 553 317 -95 callgsubr
          750 369 104 callgsubr
          -1276 -101 callsubr
          684 hlineto
          -32 -180 rlineto
          -336 hlineto
          -122 -94 -69 -117 -21 hvcurveto
          -110 -19 71 -80 116 -78 callgsubr
        </CharString>
        <CharString name="dvG_NNA">
          677 691 248 rmoveto
          -60 callsubr
          675 438 104 callgsubr
          -1339 -101 callsubr
          170 170 callsubr
        </CharString>
        <CharString name="dvG_N_YA">
          1074 549 18 callgsubr
          -1738 -101 callsubr
          866 219 callsubr
          -325 hlineto
          -122 -95 -69 -117 -20 hvcurveto
          48 callsubr
        </CharString>
        <CharString name="dvG_R">
          -143 199 -20 rmoveto
          350 298 11 69 -438 -367 rlineto
          496 706 -87 callgsubr
          -592 25 callsubr
          -17 42 158 callsubr
          endchar
        </CharString>
        <CharString name="dvG_RA">
          122 551 hmoveto
          59 callsubr
          -785 25 callsubr
          -16 41 158 callsubr
          192 hlineto
          -61 -351 -424 -355 rlineto
          77 hlineto
          336 286 -47 -266 rlineto
          endchar
        </CharString>
        <CharString name="dvG_R_YA">
          560 750 174 rmoveto
          -102 callgsubr
          -1222 25 callsubr
          -16 41 158 callsubr
          350 4 callgsubr
          -7 -36 -1 -34 4 -30 -384 -321 rcurveline
          77 hlineto
          318 272 rlineto
          -83 30 76 -50 109 -67 callsubr
        </CharString>
        <CharString name="dvG_SA">
          631 885 588 10 callgsubr
          -1294 -101 callsubr
          425 hlineto
          -18 -98 rlineto
          -108 -20 -74 -69 -116 hhcurveto
          -98 hlineto
          -36 -202 142 callgsubr
        </CharString>
        <CharString name="dvG_VA">
          500 711 156 -73 callgsubr
          -1163 -101 callsubr
          572 4 callsubr
          -130 -110 308 callgsubr
          -149 -27 86 -91 133 -77 callgsubr
        </CharString>
        <CharString name="dvG_YA">
          559 749 174 rmoveto
          -102 callgsubr
          -1221 -101 callsubr
          349 24 callgsubr
          endchar
        </CharString>
        <CharString name="dvGx">
          -122 546 -40 callsubr
          -520 -101 callsubr
          -203 -586 rmoveto
          -100 callgsubr
          endchar
        </CharString>
        <CharString name="dvGxA">
          122 550 hmoveto
          83 callgsubr
          -785 -101 callsubr
          192 hlineto
          -120 -686 rlineto
          -275 100 rmoveto
          -100 callgsubr
          endchar
        </CharString>
        <CharString name="dvGx_R">
          -143 199 -20 rmoveto
          350 298 11 69 -438 -367 rlineto
          496 706 -87 callgsubr
          -592 25 callsubr
          -17 42 158 callsubr
          -318 -573 -24 callsubr
          endchar
        </CharString>
        <CharString name="dvGx_RA">
          122 551 hmoveto
          59 callsubr
          -785 25 callsubr
          -16 41 158 callsubr
          192 hlineto
          -61 -351 -424 -355 rlineto
          77 hlineto
          336 286 -47 -266 rlineto
          -391 113 -24 callsubr
          endchar
        </CharString>
        <CharString name="dvH">
          -19 335 -380 146 callgsubr
          244 936 110 callsubr
          -645 8 callsubr
          438 255 callgsubr
          -11 -65 36 -40 42 -19 -77 -35 -54 -69 -15 -84 -79 callsubr
        </CharString>
        <CharString name="dvHA">
          -10 513 207 callgsubr
          -645 8 callsubr
          438 255 callgsubr
          -11 -65 36 -40 42 -19 -77 -35 -54 -69 -15 -84 -79 callsubr
        </CharString>
        <CharString name="dvHA_mU">
          -19 530 207 callgsubr
          -644 -102 callsubr
          438 126 callgsubr
          -93 -77 -39 -87 -16 hvcurveto
          -11 -60 34 -42 44 -20 -77 -33 -53 -67 -14 -88 rrcurveto
          -117 -20 70 -101 171 hhcurveto
          102 43 -38 -68 -12 hvcurveto
          -67 -11 -74 -38 -82 hhcurveto
          -100 -73 46 102 23 hvcurveto
          -57 hlineto
          -128 -28 98 -71 132 hhcurveto
          124 88 57 98 16 hvcurveto
          100 16 -62 59 -133 hhcurveto
          -129 -58 73 91 17 hvcurveto
          84 16 70 78 106 hhcurveto
          114 31 -80 -70 -12 hvcurveto
          61 hlineto
          96 16 -46 106 -154 hhcurveto
          -21 -19 -2 -3 -19 hvcurveto
          -44 376 callgsubr
          48 rrcurveto
          62 12 60 27 65 hhcurveto
          183 hlineto
          endchar
        </CharString>
</ttFont>
